<?xml version="1.0" encoding="utf-8"?>
<!-- Generator: Adobe Illustrator 22.0.1, SVG Export Plug-In . SVG Version: 6.00 Build 0)  -->
<svg version="1.2" baseProfile="tiny" id="圖層_1"
	 xmlns="http://www.w3.org/2000/svg" xmlns:xlink="http://www.w3.org/1999/xlink" x="0px" y="0px" viewBox="0 0 1920 1340"
	 xml:space="preserve">
<g>
	<g>
		<path fill="#F7F9FB" d="M759,1342.6c-8.2,0-16.5,0-24.7,0c-1.2-4.7,1.4-8.7,2.6-12.9c6.7-22.4,13.4-44.9,20.3-67.2
			c1.3-4.1,2-6.7-3.4-8.2c-9.6-2.6-18.1-8.2-27.3-11.4c-26.7-9.2-51.2-23.5-78.1-32.1c-2.1-0.7-3.7-2-5.4-3.3
			c-14.1-10.3-26.2-10.6-34.3-1.9c-14.6,15.6-29.5,31-44.4,46.3c-21.1,21.8-43,42.8-63,65.5c-7.1,8.1-17.9,13.6-20.7,25.3
			c-17.2,0-34.4,0-51.6,0c2.2-5.2,5.9-9.2,10-13.1c8.2-8,16.3-16.3,24.1-24.7c21-22.7,41.8-45.8,62.9-68.4
			c14.1-15.2,29-29.6,42.9-44.9c21.6-23.8,42.2-48.4,66.2-70c13.4-12.1,26.4-24.9,38.6-38.1c25-27.1,48.9-55.2,74.3-81.9
			c21.2-22.3,41.1-45.7,62.7-67.6c7-7.2,17.2-12.9,20-24.1c-6.7-2.1-13-2.4-19.3-2.8c-71-4.5-142.1-0.8-213.1-3.4
			c-60.6-2.3-121.3,2.5-181.8-9.2c-39.1-7.6-79.6-5.7-119.6-5.1c-3-0.1-5.9-0.3-8.9-0.4c-10.1-0.1-20.2,0.5-30.2-0.4
			c-8.6-0.8-10.9,2-10.4,10.4c3.4,57,1,114.1,2.3,171.2c0.4,19.8-0.8,40.4,8.8,59.1c1.9,5.3,3.7,10.7,5.6,16
			c18.8,50.8,37.9,101.5,56,152.6c5.2,14.8,13.7,28.8,14.6,45c-12,0-24,0-35.9,0c-5.8-20.8-14.4-40.6-21.9-60.7
			c-13.5-36.2-27.1-72.3-40.7-108.5c0.5-5.2-3.3-8.6-5.1-12.9c-1.1-4.3-1.7-8.8-3.3-12.9c-11.9-29.7-14.6-60.7-14.3-92.2
			c0.6-52.7,3.6-105.3,0.1-158.1c-0.5-7.1-2-8.7-8.9-8c-19.3,2-38.6,4.5-58.1,4.2c-44.1-0.6-88.2-1.1-132.2-2.5
			C4.5,890.7,2,892.6,2,902.7c0.4,125,0.3,249.9,0.3,374.9c0.2,4.8,0.5,9.7,0.7,14.5c-0.2,16.8-0.5,33.7-0.7,50.5
			c-0.7-0.5-2.3,1.1-2.3-1.1c0.1-3,0-6,0-9C0,891.8,0,451.1-0.3,10.3c0-9.3,2.1-10.8,11-10.8c633.8,0.3,1267.6,0.2,1901.4,0.4
			c3.3,0,7.6-2.6,10.1,2.1c-46.5,0.1-92.9,0.3-139.4,0.4c-4.1-0.1-8.2-0.4-12.3-0.4c-83,0-166.1,0-249.1,0c-82.3,0-164.6,0-246.9,0
			c-5,0-10.2-1.2-13.3,5.2c-6.4,13.2-12.1,26.7-19.4,39.6c-9.1,16.1-15.6,33.7-23.9,50.3c-3.8,7.6-3,9.6,5.8,9
			c23.3-1.7,46.6-1.6,69.9-3.7c30.2-2.7,60.6-0.9,91.1,1.8c32.6,2.9,65.8,0.9,98.7,0.6c12.6-0.1,25.5,2,37.9-1.2
			c7.8-2.1,14.8-2,22.5-0.1c11.2,2.7,24.2,5.8,33.8,0.7c7.4-3.9,13.8-6,21.4-6c51.2,0,102.5,0.2,153.7,0.2c5,0,9.5,1.1,14,2.9
			c9.2,7,5.5,16.5,4.1,24.9c-2.6,15.5-9.1,30.3-8.1,46.5c-3.8,25.4-8.1,50.7-9.2,76.4c-0.1,1.4-0.2,2.8-0.3,4.3
			c-4.9,23-5.3,46.6-8.1,69.8c-0.1,1.5-0.2,3-0.2,4.5c0,0.7-0.1,1.5-0.1,2.2c0,1.5-0.1,3-0.1,4.5c-3.9,25.2-6.4,50.6-8.3,76.1
			c-0.1,0.9-0.2,1.8-0.3,2.7c-1.1,13.4-4.8,26.5-4.5,40.1c2.4,14.7-5.9,28.3-4.6,42.9c-4.2,27.4-6.9,55-8.6,82.7
			c-2.3,17.2-4.5,34.3-5,51.7c-4.6,5.4-1.5,12.3-3.5,18.2c-0.3,1.5-0.5,3.1-0.8,4.6c-0.2,3-0.3,6.1-0.5,9.1
			c-2.9,6.2-4.3,13.3-1.8,19.1c3.5,8,1.6,14.9-0.7,22.2c-2.6,0.3-3.8,2-3.9,4.5c-0.1,11.7-3.7,23.2-2.7,35c-0.4,0.7-0.5,1.4-0.2,2.2
			c-3,9-2.1,18.4-2.6,27.7l0.5,0.3c-2.6,3-1.8,6.5-1.5,9.9c1.6,10.5-1.1,21.2-2.8,31.1c-6.8,40.1-7.8,80.7-13.3,120.9
			c-4,29.7-5.8,59.6-8.4,89.4c-1.8,19.9-4.9,39.9-7.2,59.9c-0.9,8.2-0.2,16.7-2.2,24.5c-3.5,13.7-5.3,27.4-5,41.5
			c-5.4,28.6-9.1,57.4-10.9,86.5c0,0.8-0.1,1.7-0.1,2.5c-4.5,25.9-6.1,52.1-8.5,78.3c0.8,8.3,3.2,16.5,1.7,24.9
			c-184.9,0-369.8,0-554.7,0c-3-2.4-5.4-5.5-9.3-6.9c-31.9-11.4-63.3-23.8-94.4-37.4c-15.5-6.8-31.7-12-47.4-18.5
			c-36.5-15-72-32.3-108.8-46.5c-4.4-1.7-8.5-3.5-12.6-6.3c-4.7-3.3-12.6-8.7-16.9-4.8c-4.5,4.1-6,12.6-6.7,19.4
			c-0.4,4.2,4.9,6.2,9.3,7.8c15.6,5.5,31.3,10.4,46.7,17.1c31.7,13.8,64.2,25.9,96.3,38.7c23,9.1,45.4,19.7,68.9,27.6
			c6.3,2.1,12.1,4.7,16.5,9.8c-18,0-35.9,0-53.9,0c-3.6-4.9-8.8-6.9-14.2-9.1c-13-5.2-26.1-9.8-39-15.4
			c-35.8-15.6-72.5-29.1-109-43.1c-9-3.5-20.1-10.2-27.2-7.4c-8.6,3.3-7.7,17.5-10.2,26.9C768.4,1310.6,761.2,1325.9,759,1342.6z
			 M291.4,863.8c3.1,0.2,6.3,0.3,9.4,0.5c18.7,0.2,37.4,0.4,56.1,0.7c40.4,0.7,80.4,8.4,120.6,9.5c71.9,1.9,143.8,4.1,215.7,5.1
			c30.3,0.4,60.6-0.4,90.9,1.1c21.4,1,43.5-0.9,64.1,7.8c2,0.8,3.6,1.1,5.1-0.3c8.4-7.8,17.7-15.4,22.7-25.6
			c16.6-33.8,26.8-70.2,39.2-105.6c1.9-5.3,0.1-6.5-4.9-6.7c-21.8-1-43.6-2.5-65.3-4c-31.7-2.2-63.6-0.8-95.4-1.3
			c-53.8-0.7-107.7-0.1-161.5-2.6c-76.9-3.5-153.7-9.2-230.7-10.2c-1.7,0-3.4-0.1-5.1-0.1c-31.1-0.5-62.3-0.5-93.3-4.4
			c-6.7-0.8-9.4,1.7-9.5,8.5c-0.6,39.6-1.3,79.2-2.3,118.8c-0.2,6.6,2.5,8.5,8.3,8.5C267.5,863.5,279.4,863.7,291.4,863.8z
			 M859.4,944.5c-10.1,9.5-19.8,19.5-29.3,29.6c-23.6,24.9-47.8,49.2-71.7,73.8c-27,27.8-54,55.7-81,83.6
			c-10.8,11.2-10.9,11.6,3.3,16.4c7.1,2.4,12.8,7.1,19.5,9.8c24,9.9,48,19.6,72,29.4c2.6,1.1,5,2.6,8,4.1
			c20.4-60.2,41-120.2,61-180.5c7.1-21.5,12.8-43.5,19.1-65.2c0.4-0.4,1.1-1.1,1.1-1.2C860.7,943.2,860,943.5,859.4,944.5z
			 M361.9,709c19.1,2,38.4,2.6,57.5,3.7c100.3,6,200.8,12,301.4,11.9c65.1-0.1,130.2-0.3,195.2,3.2c6.3,0.3,9.6-0.9,11.4-7.2
			c2.6-9.3,6-18.4,9-27.5c15.6-47.8,29-96.3,46.7-143.4c9.7-25.7,23.4-51.6,10-80.6c-1.9-4-3-8.5-3.6-12.9c-0.7-5.1-3.4-7.7-7.7-9.9
			c-15.5-8-28.8-19.4-44.3-27.5c-24.1-12.6-49.1-21.8-76.3-24.1c-34-2.8-68,0.3-102-0.9c-64.6-2.3-129.2-6.5-193.8-7
			c-93.1-0.8-186.3-1.9-279.4-3.4c-6.2-0.1-10.8,1.3-14.7,6.1c-5.8,7.2-11.8,14.3-17.9,21.2c-3.8,4.3-4.1,9.2-4.1,14.6
			c0.1,45.2-1.6,90.4-0.6,135.7c1,46,3.8,91.9,1.8,137.9c-0.3,5.8,0.9,8.7,7.7,8.8c32.9,0.2,65.8,1,98.7,1.5
			C358.6,709.1,360.2,709.1,361.9,709z M328.2,116.9c0-1.6,0-3.2,0-4.9c-22.4,0-44.8,0.2-67.3-0.1c-6.8-0.1-9.6,1-9.6,8.9
			c-0.3,52.7-1.1,105.4-2.1,158.1c-0.3,16.6-1.3,32.9,15.3,43.5c1.7,1.1,1.9,4.2,3.6,5.4c6,4.6,8.8,13.4,18.1,13.5
			c30.4,0.3,60.8,2,91.1,3.1c116.2,4.2,232.5,3.2,348.7,7.6c56.4,2.2,112.9,0.2,168.9,12.7c27.4,6.1,50.8,18.8,74.2,31.3
			c18.6,9.9,34.3,17.8,55.5,8.3c10.3-4.6,18.8-8.6,23.3-19.5c6.2-14.7,13.4-29,20.3-43.4c15.9-33.6,31.7-67.2,48-100.6
			c16.4-33.8,31.8-68,46.9-102.3c3.9-8.9,1.4-9.7-6.7-9.6c-51.2,0.1-102.4-0.6-153.5-2.8c-85.3-3.7-170.7-1.1-256.1-6
			c-51.1-3-102.5-6-154.1-2.2c-35.7,2.6-71.7-0.7-107.6-0.8C432.9,116.7,380.5,116.9,328.2,116.9z M1225.1,1003.8
			c0,73.3,0.1,146.6,0,219.9c0,30.7-0.5,61.3-0.8,92c-0.1,5-0.7,9.1,7.1,9c90.5-0.7,181-1,271.5-1.1c6.8,0,9-1.7,8.8-8.7
			c-1-47.8,0.6-95.7,1-143.5c0.5-68.4-2.1-136.8-2.6-205.2c-0.5-71.4-0.5-142.9,0.1-214.3c0.2-27.6,2.3-55.2,3.8-82.9
			c0.2-4.5,0.6-8.4-5.3-8.8c-11.2-0.8-21.5-4.9-32.3-7.4c-29.6-6.8-60-9.3-89.5-17.5c-23.7-6.6-48.9-7.6-72.4-14.5
			c-33.2-9.9-67.8-12.3-101-21.6c-6.6-1.9-8.5,0.3-6.1,7.5c6.4,19,12.7,37.9,14.2,58.4c2.8,37.7,2.9,75.5,3.3,113.2
			C1225.6,853.4,1225.1,928.6,1225.1,1003.8z M1198.8,1091.6c1.2-71.2-0.9-145.9-3.1-220.6c-0.1-4-2.3-5.2-5.5-7.2
			c-20.4-12.1-43.6-17.5-64.9-27.6c-24.8-11.9-50.1-23-75-35c-29.9-14.4-60.5-27.4-90.5-41.5c-8.5-4-11.3-1.3-13.8,6.6
			c-10.7,34.8-21.5,69.7-33,104.3c-9,27.2-19.4,53.9-28.6,81c-15.7,46.1-28.8,93.1-45.1,139c-12.2,34.3-23.4,69-35.4,103.4
			c-1.8,5.1-0.3,6.5,4,9c20.1,11.8,42.7,17.7,63.6,27.7c27.5,13.2,56.1,24.3,84.1,36.5c25.4,11.1,51.8,20,77.7,29.8
			c3.5,1.3,7.3,1.9,10.5,3.7c18.1,10.2,37.7,17.1,57.5,21.6c26.4,6,53.7,0.8,80.5,2.6c11,0.7,13.4-2.6,13.3-13.3
			C1194.4,1239.4,1193.1,1167.2,1198.8,1091.6z M1179.9,183.3c-2.1,3.8-3.9,6.6-5.3,9.6c-13.2,28.2-26.2,56.5-39.4,84.7
			c-18,38.7-35.8,77.5-54.2,116c-7.4,15.3-11.9,29.7-0.9,45.4c4.4,6.3,7.1,13.9,9.4,21.3c3.5,11.3,10.3,18.8,20.9,24.2
			c8.7,4.5,16.9,10.6,24.1,17.4c21.2,19.9,42.7,39.7,56.5,66.1c2.1,4,3.8,11,8.8,10.3c14.5-2.3,27.7,2.2,41.3,5.5
			c31.1,7.6,62.7,12.2,94,19.1c37.6,8.4,75.3,17,113.3,23.5c18.8,3.2,38.2,4.6,56,10.6c10.4,3.5,11.8,2.5,12.4-7
			c3.6-61.5,8.6-123,17.4-184c5.8-40.2-3-75.1-26.9-107c-3-4-4.8-9.3-11.5-9.3c-43.6,0.1-86.6-8-130-10.9c-9-0.6-15.8-4-19-11.4
			c-4.8-10.9-13.7-17.8-22.7-23.4c-24.4-15.2-47.3-32.8-73.7-44.8c-2.7-1.2-5.2-2.9-7.5-4.7C1222,217.7,1201.2,200.7,1179.9,183.3z
			 M1528.3,1012.5c-0.5,46,3,91.9,2.9,137.9c-0.1,54.2-3.2,108.4-1.7,162.6c0.2,8.5,2.5,10.7,10.8,10.5c21.3-0.3,42.6,0,63.9,0.8
			c7.7,0.3,10-2,10.6-9.7c4.9-56.2,11.9-112.1,18.6-168.1c6.9-58.2,13.1-116.6,19.5-174.9c5.8-52.7,11.4-105.5,16.9-158.2
			c4.2-40.5,7.9-81.1,11.9-121.6c0.5-4.6,0.4-7.8-5.4-8.6c-18.3-2.4-36.4-6.4-54.5-9.5c-25.7-4.4-52.1-5-78-8.3
			c-9-1.2-11.5,1.1-11.8,9.6c-1.7,45.2-4.6,90.2-3.9,135.5C1529,877.9,1528.3,945.2,1528.3,1012.5z M2.3,540.9
			c0,52.4,0.1,104.7-0.1,157.1c0,6,0.3,9.3,8.1,9.2c65.8-0.5,131.7-0.5,197.5-0.4c6.7,0,7.9-2.4,7.9-8.4c0.3-22.8,1.2-45.6,1.7-68.4
			c1.4-67.3-1.2-134.6-2.3-201.9c-0.1-6.3,1.4-15-2-18.5c-10.8-11.2-20.7-24.9-37.9-27c-24.6-3-49.4-1.5-74.3-4.6
			c-29.1-3.7-58.9-1.8-88.4-3.2c-8.5-0.4-10.5,1.5-10.5,10C2.5,436.9,2.3,488.9,2.3,540.9z M1559,313.2
			c65.6,4.4,109.9,7.2,154.3,10.5c6.5,0.5,9.1-0.3,9.8-7.6c5.2-55,11.3-109.9,19.1-164.7c0.6-4.5-0.5-5.7-5-5.8
			c-48-1.2-96-0.1-143.8-6.1c-17.4-2.2-36.2,3.1-52.1-3.9c-13.1-5.8-25.6-5.7-38.7-5.9c-9.3-0.2-18.7,0.6-28,0.2
			c-11.3-0.5-22.1-1.5-22,14.8c0,2.1-2.7,4.3-4.3,6.4c-5.6,7.8-11.4,15.6-16.9,23.5c-23.6,34.1-46.9,68.3-70.6,102.3
			c-6.2,8.9-2.7,20,8,21.3c26.1,3.3,52.4,5.6,78.6,8.2C1491.3,310.9,1535.8,311.9,1559,313.2z M1195,765.7c-0.1,0-0.3,0-0.4,0
			c0-17.9,0.4-35.9-0.1-53.8c-0.7-25.3-2-50.7-8.8-75.3c-5.8-21.2-13.8-41.6-26-60c-11.3-17.1-24.1-32.3-40.6-45.1
			c-9.8-7.5-20.2-14.5-29.6-22.8c-6.7-6-15.7-11.3-24.8-11.9c-12.8-0.9-29.5,13.9-34,27.1c-15.6,45.4-30.7,90.9-47.3,135.9
			c-3.3,8.9-1,23-15.8,25.5c-0.8,0.1-1.4,2.5-1.8,3.9c-3.6,12.2-7.2,24.3-10.6,36.5c-1.8,6.4,0,12.3,5.7,15.5
			c5.7,3.1,11.9,6.8,17.8,8.2c18.8,4.6,35.8,12.9,53.1,21.2c26.2,12.5,52.5,25.1,79.1,36.8c22.9,10.1,45.5,21.6,69.7,28.8
			c2.1,0.6,4.7,1.2,5.9,2.7c1.9,2.3,3.9,4,6.5,3c3.7-1.5,1.8-5.2,1.9-7.9C1195.1,811.3,1195,788.5,1195,765.7z M1525.9,331.8
			c6.4,11.1,12.1,20.1,17,29.6c13.2,25.3,12.6,52.5,9.7,79.8c-6.9,64.6-14,129.2-18.1,194.1c-0.4,7.1,1.7,8.9,8.3,9.5
			c28.3,2.5,56.7,4.5,84.7,8.8c16.4,2.5,32.5,6.7,49.1,9c6.1,0.8,8.8-0.3,9.5-6.9c2-18.6,4.7-37,6.7-55.6
			c8.8-81.4,17.2-162.7,26.2-244.1c0.8-7-0.5-9-7.4-9.6c-21.4-1.9-42.6-4.9-64-6.6C1607.8,336.8,1567.9,334.5,1525.9,331.8z
			 M2.3,223.2c0,35.5,0.2,71-0.2,106.6c-0.1,7.3,1.1,9.9,9.4,10.4c22.8,1.3,45.6-0.8,68.3-0.3c31.4,0.6,62.8,1.2,94.1,1.5
			c16.5,0.2,40.1-22.3,40.3-38.7c0.7-61.3-2-122.6,1.7-183.8c0.3-5-1-7.1-6.7-7.3c-66.1-1.7-132.2-4-198.3-4.6
			c-8-0.1-8.9,2.9-8.9,9.7C2.4,152.2,2.3,187.7,2.3,223.2z M570.2,2c-82.3,0-164.7,0-247,0c-20.2,0-40.4,0.2-60.6-0.1
			c-5.7-0.1-7.8,1.4-7.7,7.4c0.2,12.7,0,25.4-0.9,38.1c-0.5,7.2,1.9,8.4,8.7,8.6c61.3,1.8,122.7,2.6,184,2.5
			c36.4-0.1,72.9-0.8,106.8,16.4c8.2,4.2,18.5,4.2,26.5,8.6c14.5,7.9,29.5,11.2,45.7,11.6c19.8,0.5,39.6,1.8,59.4,2.2
			c63.9,1.3,127.8,4.3,191.8,4c6.5,0,8.1-2.1,8-8.3c-0.3-26.6-0.6-53.2,0.1-79.7c0.3-9.4-2.3-11.6-11.6-11.5
			C772.3,2.2,671.3,2,570.2,2z M1058.1,2c-48.6,0-97.3,0-145.9,0c-4.4,0-9.7-2.1-9.6,6.4c0.4,28.8,0.3,57.6,0,86.4
			c0,5,1.9,7,6.4,6.6c14.5-1.5,28.4,4.1,43,3.6c14.9-0.5,29.9-0.2,44.9,0.4c56.7,2.5,113.5,3,170.3,3c4.5,0,9.4,1.8,12.4-4.6
			c12.3-26.6,25.1-52.9,37.7-79.4c5.3-11.2-1.9-22.4-14.3-22.4C1154.6,2,1106.4,2,1058.1,2z M109.1,727c0,0.1,0,0.2,0,0.4
			c-32.9,0-65.8,0.2-98.7-0.1c-6.2-0.1-8.2,1.5-8.2,8c0.3,40.8,0.3,81.6,0,122.3c-0.1,6.9,1.8,8.7,8.8,8.8
			c64.6,0.7,129.2,4.9,193.7-1.7c6.7-0.7,8.8-2.3,8.9-9c0.3-39.6,0.9-79.2,1.9-118.8c0.2-7.8-1.9-10.1-9.8-10
			C173.4,727.3,141.2,727,109.1,727z M1439,129.9c-51.4,0.6-99.5-2.6-147.8-0.9c-25.4,0.9-50.8,1.7-76.2,2.1
			c-9,0.2-16,1.4-17.7,12.2c-0.7,4.2-3.5,8.2-5.7,12.1c-3.4,6.3-2,10.3,3.9,14.7c11.5,8.5,21.7,18.9,33.4,27
			c11.3,7.8,20,19.2,32.7,24.6c16.1,6.8,30.5,16.8,44.9,26.3c11.5,7.5,24.1,13.5,34.4,23.1C1373.2,224.6,1405.2,178.4,1439,129.9z
			 M111.8,2C78.1,2,44.5,2.2,10.9,1.9c-6.7-0.1-9.2,1.4-8.8,8.5c0.7,10.8,0.5,21.7,0,32.5c-0.3,6.4,0.9,9.4,8.4,9
			c11.5-0.6,23.1,0.1,34.7,0.2c55.3,0.6,110.5,1.2,165.8,1.9c5,0.1,7.3-1,7.3-6.7c0.1-12.3,0.8-24.6,1.8-36.9c0.6-7-1.7-8.7-8.6-8.7
			C178.3,2.2,145,2,111.8,2z M545.4,95.6c-16.4-3.9-30-14.6-47.7-15.3c-78.1-2.9-156.2-0.3-234.2-4.2c-5.8-0.3-10.9-0.8-11,7.9
			c-0.2,9.3,5.7,7.7,11.1,7.8c72.8,1.6,145.7,3.4,218.5,4.7C503.1,96.9,524.2,98.6,545.4,95.6z M633.8,1180.4
			c18.1,7.9,34.5,17.1,52.5,22.9c2.5,0.8,5.1,1.4,7.3,2.8c20.3,12.9,44.7,16.5,65.6,28.2c1.8,1,4.5,2.2,6.9-0.7
			c9.4-11.6,6.1-24.3-7.7-29.9c-23.7-9.4-47.2-19.2-70.8-28.8c-1.7-0.7-3.4-1.3-4.9-2.3c-22.8-15.5-29.8-14.7-47.2,5.4
			C634.9,1178.6,634.6,1179.2,633.8,1180.4z M110.1,74.2c0-0.7,0-1.5,0-2.2c-33.2,0-66.4,0-99.7-0.1c-4.9,0-8.7-0.1-8.4,6.8
			c0.2,5.8,1.2,8.5,8.1,8.5c65.7,0,131.4,1.9,197.1,4.3c5.9,0.2,10.8,0.7,10.6-8.3c-0.2-8-3.5-9.2-10.2-9.1
			C175.1,74.3,142.6,74.2,110.1,74.2z"/>
	</g>
	<g>
		<path fill="#014B84" d="M296.7,889.3c40-0.6,80.6-2.5,119.6,5.1c60.5,11.7,121.2,6.9,181.8,9.2c71,2.6,142.1-1.1,213.1,3.4
			c6.4,0.4,12.7,0.7,19.3,2.8c-2.8,11.2-13,17-20,24.1c-21.5,22-41.5,45.4-62.7,67.6c-25.4,26.7-49.3,54.8-74.3,81.9
			c-12.3,13.3-25.2,26-38.6,38.1c-24,21.6-44.6,46.2-66.2,70c-13.9,15.3-28.8,29.8-42.9,44.9c-21.1,22.7-41.8,45.7-62.9,68.4
			c-7.8,8.4-15.8,16.7-24.1,24.7c-4,3.9-7.8,7.8-10,13.1c-31.4,0-62.9,0-94.3,0c-0.9-16.3-9.4-30.2-14.6-45
			c-18.1-51.1-37.3-101.7-56-152.6c4.8-5.6,8.9-12,15.9-15.3c13.3-6.3,17.1-17.3,17-31C296.7,1029,296.8,959.1,296.7,889.3z"/>
	</g>
	<g>
		<path fill="#014B84" d="M1886.3,1342.6c-59.1,0-118.3,0-177.4,0c6.7-61.2,13.6-122.4,20.2-183.6c8.5-78.7,16.6-157.4,25.4-236
			c1.4-12.3,0.3-25.2,6-36.9c9.8,2.1,18.8,7.5,29.2,7.2c0.4,2.2,0.8,4.4,3.7,4.1c0.8-0.1,2.1-1.1,2.1-1.8c0.1-3.2-2.3-4-4.9-4.5
			c-9.6-4.2-19.8-5.5-30.1-6.5c-0.2-2.6-1-5.2-0.7-7.7c6.4-49.6,11.4-99.4,14.2-149.3c0.3-5.8,3.3-5.6,7.4-4.7
			c9.3,2,18,6.5,27.1,8.7c28.5,6.9,56.3,16.1,84.5,23.8c9.7,2.6,19.4,5.2,29.1,7.8c0,31.4,0,62.9,0,94.3
			c-10.3-1.8-20.9-2.5-30.7-5.7c-9-2.9-9.8,0.6-10.4,7.8c-1,13.8-2.9,27.4-4.1,41.2c-0.6,6.7-2.3,10.2-10.2,8.2
			c-17.4-4.3-34.9-7.8-52.4-11.7c-0.4-3.2-2.4-4.1-5.2-3.8c-2-0.1-4-0.2-6-0.3c-2.3-2.2-3.8-1.6-4.2,1.4c-0.5,3.7,1.4,5.3,5.1,5.1
			c17.4,4,35.3,6.3,51.9,12.3c21.7,7.8,44,12.3,66.3,17.2c0,83.1,0,166.2,0,249.3c-13.2,20.4-23.9,41.9-30.2,65.5
			c-8.4,31.3-18.3,62.5-6.1,95.1C1886.3,1340.3,1886.2,1341.5,1886.3,1342.6z"/>
	</g>
	<g>
		<path fill="#F9FBFC" d="M1760.5,886.2c-5.6,11.7-4.6,24.6-6,36.9c-8.8,78.6-16.9,157.3-25.4,236c-6.6,61.2-13.5,122.4-20.2,183.6
			c-20.2,0-40.4,0-60.6,0c2.1-3.7,2-7.8,1.9-11.8c-0.1-5.3,3.3-5.7,7-6.2c18.5,1.4,18.4,1.4,20.6-16.5c2.6-21.5,5.4-43,7.9-64.5
			c6.2-53,13.3-105.9,18.1-159c4-43.9,9.5-87.5,13.6-131.3c2.4-25.9,7.4-51.7,7.2-77.8c0.7-1.6,1.3-3.1,2-4.7
			c4.6-49.7,11.6-99.1,14.6-149c0.4-7.3-1.3-11.4-8.7-12.5c-4.8-0.7-9.5-1.5-14.3-2.3c2.1-6.9-0.2-14.7,4.3-21.1
			c1.5,0.3,2.9,0.7,4.4,1c16.9,3.3,17,3.3,17.6-14.3c2.3-60.2,9-119.9,15.5-179.7c12.3-112.6,24.1-225.2,36.1-337.7
			c1.7-16.2,1.7-16.2-15.2-16c0.7-9.6,1.5-19.3,2.3-28.9c0.2-1.8,0.3-4.4,2.3-4.7c12.6-1.8,22.1-12,35.9-11.4
			c33.6,1.5,67.2,1.6,100.8,2.3c0,17.2,0,34.4,0,51.6c-25.8,0-51.6,0.4-77.3-0.2c-10.3-0.3-15.4,1.3-15.6,13.4
			c-0.1,7.2-1.1,14.8-1.4,22.2c-3.8,9-3.3,18.8-4.4,28.2c-3.8,32.8-7.4,65.7-10.6,98.6c-0.4,4.2-6.3,8.5-0.7,13
			c-1.6,11.1-3.1,22.2-4.7,33.4c-0.6,5.3-1.2,10.5-1.9,15.8c-1.6,16.5-3.2,32.9-4.8,49.4c-3.7,36.7-7.3,73.4-11,110.2
			c-0.2,1.6-2.6,2.9-0.3,4.7c-3.7,46.9-7.6,93.8-11.1,140.7c-1.7,23.5-1.2,23.3,21.7,29.4c20.7,5.5,40.4,14.4,62,16.5
			c7,2.9,13.9,5.9,21.5,6.8c1.1,1.8,2.5,2.9,4.8,2.1l0.1,0.1c1.7,3.8,4.9,2.4,7.7,2.2l0.1,0c2.3,3.3,5.7,2.5,8.9,2.2
			c0,0,0.1,0,0.1,0c2.6,3.8,6.4,2.2,9.8,2.2c1.6,3.1,4.5,2,7,2.2c0,7.5,0,15,0,22.5c-9.7-2.6-19.4-5.2-29.1-7.8
			c-28.2-7.7-56-16.9-84.5-23.8c-9.1-2.2-17.8-6.6-27.1-8.7c-4.1-0.9-7.1-1.1-7.4,4.7c-2.8,50-7.8,99.7-14.2,149.3
			c-0.3,2.5,0.4,5.2,0.7,7.7C1760.1,885.2,1760.1,885.7,1760.5,886.2z"/>
	</g>
	<g>
		<path fill="#E3E4E4" d="M1800.9,421.6c1.6-16.5,3.2-32.9,4.8-49.4c13.6,8.3,28,14.8,42.9,20.5c3.4,1.3,6.7,2.4,9.6,5.2
			c2.2,2.2,7.7,7,9.4,1c1.2-4.1,8.1-11.1-1.6-15.2c-3-1.2-5.8-3.4-8.5-4.7c-16.4-8-33.2-15.2-49.9-22.6c1.6-11.1,3.1-22.2,4.7-33.4
			c9.4,0.5,16.6,7,25.4,9.4c8,2.2,12.9,2.5,14.5-6.8c0.5-2.9,1.3-5.7,4.8-4.2c9.4,4,18.9,7.9,27.6,13.1c3.9,2.3,4.8,7.8,3.9,13.2
			c-2.8,17.9-0.9,20.9,15.8,28.5c2,0.9,3.7,1.7,5.4,3.4c5.1,5.2,9.7,4.3,12.6-2.7c0,110.8,0,221.6,0,332.4c-3,8.8-2.1,18.7-6.7,27.1
			c-3.4,0-6.7-0.1-10.1-0.1c0,0-0.1,0-0.1,0c-2.4-3-5.6-2.7-8.9-2.2c0,0-0.1,0-0.1,0c-1.9-3-4.8-2.7-7.7-2.2c0,0-0.1-0.1-0.1-0.1
			c-0.1-4.2-1.3-5.7-4.8-2.1c-7.6-1-14.5-4-21.5-6.8c6.1-18.4,8.1-37.6,12.6-56.3c3.7-15.6,3.6-15.6-11.6-20.3
			c-1.4-0.4-2.8-1.2-4.3-1.3c-8.5-0.9-9.8-5.8-8.4-13.3c3.3-18.3,5.9-36.7,8.8-55.1c0.5-2.9,0.3-6.3,4.6-6.4
			c11.8-0.3,7.5-10.3,8.6-15.8c1.3-6.7-6.4-4.4-10-5.6c-4.5-1.5-9.2-2.2-13.8-6.4c-1.8,6.7-4.4,12.3-4.7,18
			c-0.4,8.6-4.9,8.5-9.9,5.1c-8.8-6.1-19-7.8-28.6-11.2c-4.4-1.6-8.5-2.8-7.1-9c1.6-7.3-2.8-9.1-9-8.9c-2.2-1.7,0.2-3.1,0.3-4.7
			c9.4-2.8,9.9-9.8,8-17.7c-0.8-3.4,7.3-31.4,10.3-32.9c1.9-0.9,4.3-0.8,6.5-0.8c11.4-0.2,21.5,3.9,31.5,9.1
			c10.2,5.3,21.8,11.7,32.2,9.8c6.4-1.1,3.1-15.4,5.7-23.4c0.3-1,0.2-2.2,0.3-3.3c0.2-3.3-1.6-5.3-4.7-4.5
			c-13.3,3.4-23.6-4.8-35.2-8.2c-10.6-3.1-15.6-8.5-12.4-20.2c1-3.5,3.4-9.4-3.4-11.1C1819.5,426.1,1810.8,421.5,1800.9,421.6z"/>
	</g>
	<g>
		<path fill="#466984" d="M1922.2,96.3c-33.6-0.7-67.2-0.8-100.8-2.3c-13.8-0.6-23.3,9.7-35.9,11.4c-2,0.3-2.2,2.9-2.3,4.7
			c-0.8,9.6-1.5,19.3-2.3,28.9c-2.4,13.6-1.5,27.4-3.8,41.2c-4.9,29.3-5.4,59.2-9.6,88.7c-2.3,16.2-2.5,32.7-5.5,48.7
			c-1.3,6.8,3,13.4,0.2,18.5c-3.2,5.7-3.3,11.2-3.8,17c-0.7,8.5-1.5,17-2.4,25.6c-0.8,8.1-1.2,16.4-2.7,24.4c-1.3,7,0,13.8-1.7,21
			c-6.7,28.4-5.3,57.9-10.6,86.6c-2.7,14.6-2.9,29.6-5,44.3c-1.9,13.9-1.2,28-4,42c-3.8,18.5-5.4,37.5-6.5,56.4
			c-0.4,7.2-3.5,15.6,3,22.4c1.3,1.4-0.2,3.5-2.7,3.5c-5.5,0-2.3,4.3-3.3,6.6c-4.6,6.4-2.3,14.2-4.3,21.1c-3.3,16,0.5,32.3-3.9,48.6
			c-4.2,15.5-3.8,32.4-5.3,48.6c-0.8,8.1,0.4,17.3-1.3,24.1c-3.5,13.5-4.2,26.8-5.2,40.3c-0.6,0.7-1.3,1.4-1.9,2.1
			c-1.2,17.2-0.6,34.5-4.6,51.5c-2.1,9-1.7,18.5-2.7,27.8c-1,9.2-5.4,19.4-2.9,27.4c3,9.4-2.5,15.2-3.4,22.7c0,0.4-0.1,0.7-0.1,1.1
			c-1.6,17.1-3.2,34.1-4.7,51.2c-0.5,6.1-3.7,12.5,1.9,18c-7.6,6.3-5.4,15.3-6.4,23.4c-1.5,11.8-2.6,23.7-4.4,35.4
			c-1.6,10.1,1.9,20.1-2,30.6c-3.8,10.2-3.2,22-4.7,33c-3.4,25.6-5,51.3-7.8,76.9c-1.9,17.2-10.1,35.1-0.6,52.7
			c0.2,0.4-0.5,1.4-0.8,2.1c-3.7,0.5-7.2,0.9-7,6.2c0.1,4,0.2,8.1-1.9,11.8c-3,0-6,0-9,0c1.6-8.4-0.9-16.6-1.7-24.9
			c2.7-1.8,3.6-4.3,3.9-7.5c1.3-13.2,4.1-26.4,4-39.5c-0.1-10.4,6.4-20.8,0.7-31.2c0-0.8,0.1-1.7,0.1-2.5c2.7-1.1,4-3.2,4.1-6
			c1-26.9,7.4-53.4,6.8-80.4c-0.3-14.1,1.5-27.7,5-41.5c2-7.8,1.3-16.3,2.2-24.5c2.3-20,5.4-40,7.2-59.9c2.6-29.8,4.4-59.8,8.4-89.4
			c5.5-40.2,6.5-80.8,13.3-120.9c1.7-9.8,4.4-20.5,2.8-31.1c2.2-3.1,0.9-6.6,1.5-9.9c0,0-0.5-0.3-0.5-0.3c3.7-9,4.8-18.2,2.6-27.7
			c-0.3-0.8-0.2-1.5,0.2-2.2c6.7-12.4,3-26.5,6.5-39.4c2.3-7.3,4.2-14.1,0.7-22.2c-2.5-5.8-1.1-12.9,1.8-19.1
			c3.3-2.9,3.3-5.9,0.5-9.1c0.3-1.5,0.5-3.1,0.8-4.6c6.7-5,1.6-12.3,3.5-18.2c0.5-17.3,2.7-34.5,5-51.7c2-4,3.3-8.1,3.8-12.6
			c2-18.4,4.4-36.7,6.2-55.1c0.5-4.9,2.4-10.3-1.5-14.9c-1.3-14.6,7.1-28.2,4.6-42.9c5.6-12.9,7.3-26.2,4.5-40.1
			c0.1-0.9,0.2-1.8,0.3-2.7c0.9-0.6,2.7-1,2.7-1.7c2.6-23.9,5-47.8,7.3-71.7c0.1-0.8-1.1-1.8-1.8-2.7c0-1.5,0.1-3,0.1-4.5
			c1.6-0.7,1.6-1.4,0.1-2.2c0.1-1.5,0.2-3,0.2-4.5c2.6-0.4,3.6-2.1,3.8-4.6c2.1-19.8,4.4-39.6,6.6-59.5c0.3-2.3-0.1-4.4-2.4-5.8
			c0.1-1.4,0.2-2.8,0.3-4.3c3.6-3.2,4-7.7,4.4-12.1c1.6-16.9,3.2-33.8,4.6-50.7c0.4-4.5,4.7-9,0.1-13.5c-1-16.2,5.4-31,8.1-46.5
			c1.4-8.4,5-17.9-4.1-24.9c10.8-3.1,4.9-12.9,6.6-19.1c3.7-13.4,3.5-27.9,5.2-41.9c0.9-7.7,4.8-16.4,1.5-23
			c-3.5-7.1-0.8-10.5,2.7-14.9c46.5-0.1,92.9-0.3,139.4-0.4C1922.2,33.4,1922.2,64.9,1922.2,96.3z"/>
	</g>
	<g>
		<path fill="#014B84" d="M2.2,1342.6c0.2-16.8,0.5-33.7,0.7-50.5c21.3-9.2,41-21.5,61.9-31.3c33.1-15.6,64.4-34.7,98.2-48.7
			c2-0.8,4-2,6-3c22.7-11.2,43.2-26.7,67.1-35.7c13.6,36.2,27.2,72.3,40.7,108.5c7.5,20.2,16.1,40,21.9,60.7
			C199.9,1342.6,101.1,1342.6,2.2,1342.6z"/>
	</g>
	<g>
		<path fill="#014B84" d="M480.6,1342.6c2.8-11.7,13.6-17.2,20.7-25.3c20-22.8,41.9-43.8,63-65.5c14.9-15.4,29.8-30.7,44.4-46.3
			c8.1-8.7,20.2-8.4,34.3,1.9c1.8,1.3,3.4,2.7,5.4,3.3c26.9,8.6,51.4,22.8,78.1,32.1c9.2,3.2,17.7,8.8,27.3,11.4
			c5.4,1.5,4.7,4.1,3.4,8.2c-6.9,22.4-13.6,44.8-20.3,67.2c-1.3,4.2-3.8,8.2-2.6,12.9C649.7,1342.6,565.1,1342.6,480.6,1342.6z"/>
	</g>
	<g>
		<path fill="#024C85" d="M1922.2,377c-2.9,7-7.5,7.9-12.6,2.7c-1.7-1.7-3.5-2.5-5.4-3.4c-16.7-7.6-18.6-10.6-15.8-28.5
			c0.8-5.4-0.1-10.9-3.9-13.2c-8.7-5.2-18.2-9-27.6-13.1c-3.5-1.5-4.3,1.3-4.8,4.2c-1.6,9.3-6.5,9-14.5,6.8
			c-8.8-2.5-16-8.9-25.4-9.4c-5.6-4.5,0.3-8.8,0.7-13c3.1-32.9,6.8-65.7,10.6-98.6c1.1-9.4,0.6-19.2,4.4-28.2
			c11.7,2.2,23.3,5,35.1,6.6c20.1,2.7,38.6,12.5,59.3,12c0,20.2,0,40.4,0,60.6c-11.2,14.1-22.3,28.2-33.7,42.1
			c-4.9,6-2.2,9.2,2.9,12.8c5.5,4,13.9,8.4,10.1,16.2c-5.6,11.3,0.6,14.2,8.7,17.5c4.1,1.7,8,3.8,12.1,5.7
			C1922.2,363.5,1922.2,370.3,1922.2,377z"/>
	</g>
	<g>
		<path fill="#024C85" d="M759,1342.6c2.2-16.7,9.4-32,13.7-48.1c2.6-9.5,1.7-23.6,10.2-26.9c7.1-2.7,18.2,4,27.2,7.4
			c36.5,14,73.2,27.6,109,43.1c12.9,5.6,26,10.2,39,15.4c5.4,2.1,10.6,4.2,14.2,9.1C901.2,1342.6,830.1,1342.6,759,1342.6z"/>
	</g>
	<g>
		<path fill="#064F87" d="M1026.2,1342.6c-4.4-5.1-10.2-7.7-16.5-9.8c-23.5-8-45.9-18.5-68.9-27.6c-32.2-12.8-64.6-24.9-96.3-38.7
			c-15.3-6.7-31-11.6-46.7-17.1c-4.4-1.5-9.7-3.5-9.3-7.8c0.7-6.8,2.2-15.4,6.7-19.4c4.3-3.9,12.2,1.5,16.9,4.8
			c4.1,2.8,8.2,4.6,12.6,6.3c36.8,14.2,72.3,31.5,108.8,46.5c15.7,6.4,31.9,11.7,47.4,18.5c31,13.6,62.5,26,94.4,37.4
			c3.9,1.4,6.3,4.5,9.3,6.9C1065.2,1342.6,1045.7,1342.6,1026.2,1342.6z"/>
	</g>
	<g>
		<path fill="#E3E4E4" d="M1922.2,201.9c-20.7,0.5-39.3-9.3-59.3-12c-11.8-1.6-23.4-4.3-35.1-6.6c0.4-7.4,1.3-14.9,1.4-22.2
			c0.2-12.1,5.4-13.6,15.6-13.4c25.8,0.7,51.5,0.2,77.3,0.2C1922.2,165.9,1922.2,183.9,1922.2,201.9z"/>
	</g>
	<g>
		<path fill="#014C84" d="M1922.2,1187.7c0,49.4-0.1,98.8,0.1,148.2c0,5.6-1.2,7.3-6.9,6.9c-8.2-0.6-16.5-0.1-24.7-0.1
			c-1.1-5.5-2.4-10.9-3.4-16.4c-1.7-9.5-5-18.6-3.1-28.7C1891.3,1258.9,1900.6,1221.2,1922.2,1187.7z"/>
	</g>
	<g>
		<path fill="#E3E4E4" d="M1814.5,897.5c17.5,3.8,35,7.4,52.4,11.7c7.9,2,9.6-1.5,10.2-8.2c1.2-13.8,3.1-27.4,4.1-41.2
			c0.5-7.3,1.3-10.8,10.4-7.8c9.8,3.2,20.4,3.9,30.7,5.7c0,24,0,47.9,0,71.9c-22.3-4.9-44.6-9.3-66.3-17.2
			c-16.6-6-34.6-8.3-51.9-12.3c-0.3-2.2-0.6-4.3-0.8-6.5c2,0.1,4,0.2,6,0.3C1809.9,896.6,1811.4,898.1,1814.5,897.5z"/>
	</g>
	<g>
		<path fill="#E3E4E4" d="M1922.2,356.8c-4-1.9-7.9-4.1-12.1-5.7c-8.1-3.3-14.4-6.2-8.7-17.5c3.8-7.7-4.5-12.2-10.1-16.2
			c-5.1-3.6-7.8-6.8-2.9-12.8c11.4-13.9,22.5-28.1,33.7-42.1C1922.2,293.9,1922.2,325.4,1922.2,356.8z"/>
	</g>
	<g>
		<path fill="#93C7EE" d="M1922.2,1187.7c-21.7,33.5-30.9,71.3-38,109.9c-1.8,10,1.4,19.2,3.1,28.7c1,5.5,2.2,11,3.4,16.4
			c-1.5,0-3,0-4.5,0c-0.1-1.1,0-2.3-0.4-3.3c-12.3-32.6-2.3-63.8,6.1-95.1c6.3-23.6,17-45.1,30.2-65.5
			C1922.2,1181.7,1922.2,1184.7,1922.2,1187.7z"/>
	</g>
	<g>
		<path fill="#0E548A" d="M1915.5,736.5c4.6-8.5,3.7-18.3,6.7-27.1c0,10.5,0,21,0,31.4c-2.5-0.2-5.5,0.9-7-2.2
			C1915.4,737.9,1915.5,737.2,1915.5,736.5z"/>
	</g>
	<g>
		<path fill="#014B84" d="M356.9,709.2c-32.9-0.6-65.8-1.3-98.7-1.5c-6.9,0-8-2.9-7.7-8.8c2-46-0.8-92-1.8-137.9
			c-1-45.2,0.7-90.4,0.6-135.7c0-5.4,0.3-10.3,4.1-14.6c6.1-6.9,12-14,17.9-21.2c3.9-4.8,8.5-6.2,14.7-6.1
			c93.1,1.5,186.2,2.7,279.4,3.4c64.6,0.5,129.2,4.8,193.8,7c34,1.2,68-1.9,102,0.9c27.2,2.3,52.1,11.4,76.3,24.1
			c15.5,8.1,28.8,19.6,44.3,27.5c4.3,2.2,7,4.9,7.7,9.9c0.6,4.4,1.8,8.9,3.6,12.9c13.5,29-0.3,54.9-10,80.6
			c-17.7,47.1-31.1,95.6-46.7,143.4c-3,9.2-6.4,18.3-9,27.5c-1.8,6.3-5.1,7.5-11.4,7.2c-65-3.5-130.1-3.3-195.2-3.2
			c-100.6,0.1-201-5.8-301.4-11.9c-19.1-1.1-38.4-1.7-57.5-3.7c5-24.5,9.9-48.9,14.9-73.4c0.8-4,1-7.9,5.5-10.3
			c9.7-5.2,19.1-9.7,31-9c20.9,1.3,42-0.8,62.7,1.3c14.2,1.4,30.4,3.5,38.8,17.6c6.9,11.6,16.6,15,28.7,15.3c9.5,0,18.6,8,28.7-0.8
			c23.6-20.6,26.4-47.7,24.3-75.9c-0.6-8.9-1.6-17.6-0.6-26.6c4.3-39.1,15.9-76.6,25.4-114.5c3.9-15.7-4.8-26.3-8.2-39.2
			c-0.5-2.1-2.1-2.9-4.3-2c-1.5,0.6-2.5,1.8-2.3,3.4c0.3,2.2,0.6,4.5,1.5,6.5c7.9,16.9,7.5,33.5-0.8,50.2c-2.1,4.3-2.8,9.2-4.4,13.8
			c-10.8,31.5-18.4,63.5-17.1,97.3c0.7,18.6,0.3,37.2-3.6,55.7c-4.6,21.4-16.5,31.3-38.5,28.9c-4.7-3.5-9.3-7.3-13.9-10.8
			c-12.1-9.3-22.9-21.9-39.8-22.6c-30.5-1.3-61.1-2.8-91.6-2.8c-12.3,0-24,13.5-26.5,25.8C367.1,661.1,361.9,685.1,356.9,709.2z"/>
	</g>
	<g>
		<path fill="#004B84" d="M328.2,116.9c52.3,0,104.7-0.2,157,0.1c35.9,0.2,72,3.5,107.6,0.8c51.6-3.8,103-0.7,154.1,2.2
			c85.4,4.9,170.8,2.3,256.1,6c51.2,2.2,102.3,3,153.5,2.8c8,0,10.6,0.8,6.7,9.6c-15.1,34.3-30.5,68.6-46.9,102.3
			c-16.2,33.4-32,67.1-48,100.6c-6.9,14.4-14.1,28.7-20.3,43.4c-4.6,10.9-13,15-23.3,19.5c-21.2,9.4-36.9,1.6-55.5-8.3
			c-23.5-12.5-46.9-25.2-74.2-31.3c-56-12.5-112.5-10.6-168.9-12.7c-116.2-4.4-232.5-3.4-348.7-7.6c-30.3-1.1-60.7-2.7-91.1-3.1
			c-9.4-0.1-12.1-9-18.1-13.5c-1.6-1.2-1.9-4.4-3.6-5.4c-16.6-10.5-15.6-26.8-15.3-43.5c1.1-52.7,1.8-105.4,2.1-158.1
			c0-7.9,2.9-9,9.6-8.9c22.4,0.4,44.8,0.1,67.3,0.1C328.2,113.7,328.2,115.3,328.2,116.9z"/>
	</g>
	<g>
		<path fill="#004B84" d="M1225.1,1003.8c0-75.2,0.5-150.4-0.2-225.5c-0.4-37.7-0.5-75.5-3.3-113.2c-1.5-20.5-7.8-39.4-14.2-58.4
			c-2.4-7.2-0.5-9.4,6.1-7.5c33.2,9.3,67.8,11.7,101,21.6c23.5,7,48.7,8,72.4,14.5c29.5,8.2,59.9,10.7,89.5,17.5
			c10.8,2.5,21.2,6.6,32.3,7.4c6,0.4,5.6,4.3,5.3,8.8c-1.5,27.6-3.6,55.2-3.8,82.9c-0.5,71.4-0.6,142.9-0.1,214.3
			c0.5,68.4,3.1,136.8,2.6,205.2c-0.4,47.8-2,95.7-1,143.5c0.1,7-2.1,8.7-8.8,8.7c-90.5,0.1-181,0.5-271.5,1.1c-7.9,0.1-7.2-4-7.1-9
			c0.3-30.7,0.8-61.3,0.8-92C1225.2,1150.4,1225.1,1077.1,1225.1,1003.8z"/>
	</g>
	<g>
		<path fill="#014B84" d="M1198.8,1091.6c-5.7,75.7-4.4,147.9-3.6,220c0.1,10.7-2.3,14-13.3,13.3c-26.8-1.8-54.2,3.4-80.5-2.6
			c-19.8-4.5-39.5-11.3-57.5-21.6c-3.2-1.8-7-2.4-10.5-3.7c-26-9.8-52.3-18.8-77.7-29.8c-28-12.2-56.6-23.3-84.1-36.5
			c-20.9-10-43.5-15.9-63.6-27.7c-4.3-2.5-5.7-3.9-4-9c12-34.4,23.2-69.1,35.4-103.4c16.3-45.9,29.4-92.9,45.1-139
			c9.2-27.1,19.6-53.8,28.6-81c11.5-34.6,22.2-69.4,33-104.3c2.4-7.9,5.3-10.6,13.8-6.6c30,14.2,60.6,27.1,90.5,41.5
			c24.9,12,50.1,23.1,75,35c21.3,10.2,44.5,15.5,64.9,27.6c3.2,1.9,5.4,3.2,5.5,7.2C1197.9,945.7,1200,1020.4,1198.8,1091.6z"/>
	</g>
	<g>
		<path fill="#014B84" d="M1179.9,183.3c21.3,17.4,42.1,34.4,62.9,51.3c2.3,1.9,4.9,3.5,7.5,4.7c26.3,12,49.3,29.6,73.7,44.8
			c9.1,5.6,17.9,12.5,22.7,23.4c3.3,7.4,10.1,10.8,19,11.4c43.4,2.9,86.3,10.9,130,10.9c6.7,0,8.5,5.2,11.5,9.3
			c23.9,31.9,32.7,66.8,26.9,107c-8.8,61-13.8,122.4-17.4,184c-0.6,9.5-2,10.5-12.4,7c-17.9-6-37.3-7.4-56-10.6
			c-38-6.5-75.7-15.1-113.3-23.5c-31.2-7-62.9-11.6-94-19.1c-13.6-3.3-26.7-7.8-41.3-5.5c-5,0.8-6.7-6.3-8.8-10.3
			c-13.8-26.4-35.3-46.1-56.5-66.1c-7.2-6.7-15.4-12.9-24.1-17.4c-10.6-5.5-17.4-12.9-20.9-24.2c-2.3-7.4-5-15.1-9.4-21.3
			c-11-15.7-6.5-30.1,0.9-45.4c18.5-38.5,36.2-77.3,54.2-116c13.1-28.2,26.2-56.5,39.4-84.7C1176,189.9,1177.8,187.1,1179.9,183.3z"
			/>
	</g>
	<g>
		<path fill="#014B84" d="M1528.3,1012.5c0-67.3,0.8-134.7-0.3-202c-0.7-45.3,2.2-90.4,3.9-135.5c0.3-8.5,2.8-10.8,11.8-9.6
			c25.9,3.3,52.3,3.9,78,8.3c18.2,3.1,36.2,7.1,54.5,9.5c5.8,0.8,5.9,4.1,5.4,8.6c-4,40.5-7.7,81.1-11.9,121.6
			c-5.4,52.8-11.1,105.5-16.9,158.2c-6.4,58.3-12.6,116.6-19.5,174.9c-6.7,56-13.6,112-18.6,168.1c-0.7,7.7-3,10-10.6,9.7
			c-21.3-0.8-42.6-1.1-63.9-0.8c-8.2,0.1-10.6-2-10.8-10.5c-1.4-54.2,1.6-108.4,1.7-162.6
			C1531.3,1104.5,1527.8,1058.5,1528.3,1012.5z"/>
	</g>
	<g>
		<path fill="#014B84" d="M357.4,732.2c77,0.9,153.8,6.7,230.7,10.2c53.8,2.4,107.7,1.8,161.5,2.6c31.8,0.4,63.7-0.9,95.4,1.3
			c21.8,1.5,43.5,3,65.3,4c4.9,0.2,6.7,1.4,4.9,6.7c-12.4,35.5-22.6,71.8-39.2,105.6c-5,10.2-14.4,17.8-22.7,25.6
			c-1.5,1.4-3.1,1.2-5.1,0.3c-20.6-8.7-42.6-6.7-64.1-7.8c-30.2-1.5-60.6-0.6-90.9-1.1c-71.9-1-143.8-3.2-215.7-5.1
			c-40.2-1.1-80.2-8.8-120.6-9.5c-18.7-0.3-37.4-0.5-56.1-0.7c-1.2-7.5,2.8-12.7,7.9-17.4c17-15.9,29.9-35.1,36.9-57
			C351.5,771.3,353.6,751.5,357.4,732.2z"/>
	</g>
	<g>
		<path fill="#004B84" d="M2.3,540.9c0-52,0.2-104-0.2-156c-0.1-8.5,2-10.4,10.5-10c29.5,1.4,59.3-0.5,88.4,3.2
			c24.8,3.1,49.6,1.6,74.3,4.6c17.3,2.1,27.2,15.8,37.9,27c3.4,3.5,1.9,12.2,2,18.5c1.1,67.3,3.7,134.5,2.3,201.9
			c-0.5,22.8-1.4,45.6-1.7,68.4c-0.1,6-1.2,8.4-7.9,8.4c-65.8-0.1-131.7,0-197.5,0.4c-7.8,0.1-8.1-3.2-8.1-9.2
			C2.3,645.7,2.3,593.3,2.3,540.9z"/>
	</g>
	<g>
		<path fill="#014B84" d="M2.3,1277.6c0-125,0.1-249.9-0.3-374.9c0-10.1,2.4-12,12.3-11.7c44.1,1.4,88.1,1.9,132.2,2.5
			c19.5,0.3,38.8-2.2,58.1-4.2c6.9-0.7,8.4,0.9,8.9,8c3.5,52.7,0.5,105.4-0.1,158.1c-0.3,31.5,2.4,62.6,14.3,92.2
			c1.6,4.1,2.2,8.6,3.3,12.9c-6.3,6-10.6,13.9-19.7,17.2c-10.6,3.9-20.7,9.3-30.8,14.6c-31.4,16.5-63.9,30.6-95.5,46.7
			c-18,9.2-36.6,17.1-54.1,27.2C22.2,1271.3,13,1276.8,2.3,1277.6z M82,1218.4c-3.8-10.7-7.4-21.2-11.4-31.5c-2.5-6.5-4-15-8.9-18.3
			c-5-3.4-9.7,6.2-15.8,7.5c-0.7,0.2-1.4,0.6-2.1,0.8c-4.6,1.2-5.4,3.5-3.5,8c3.7,8.8,6.7,18,10.1,27c7.8,21.3,7.8,21.3,27.5,10.5
			C79.6,1221.4,82.5,1221.5,82,1218.4z M36.7,1160.7c6.3-3.9,16.8-3.4,15.5-12.3c-0.8-5.3-0.5-15.6-8.4-16
			c-5.7-0.3-14.7,3.6-14.4,11.6C29.6,1149.4,30,1157.2,36.7,1160.7z"/>
	</g>
	<g>
		<path fill="#014B84" d="M1559,313.2c-23.1-1.3-67.7-2.2-111.8-6.6c-26.2-2.6-52.5-4.9-78.6-8.2c-10.7-1.3-14.2-12.4-8-21.3
			c23.7-34,47.1-68.2,70.6-102.3c5.5-7.9,11.2-15.7,16.9-23.5c1.5-2.1,4.3-4.3,4.3-6.4c0-16.3,10.8-15.3,22-14.8
			c9.3,0.4,18.7-0.3,28-0.2c13.1,0.2,25.6,0.1,38.7,5.9c16,7,34.8,1.7,52.1,3.9c47.8,6,95.8,4.9,143.8,6.1c4.5,0.1,5.7,1.4,5,5.8
			c-7.8,54.7-13.9,109.6-19.1,164.7c-0.7,7.3-3.2,8-9.8,7.6C1668.9,320.4,1624.6,317.6,1559,313.2z"/>
	</g>
	<g>
		<path fill="#014C84" d="M1782.9,2.4c-3.5,4.5-6.2,7.9-2.7,14.9c3.3,6.6-0.6,15.3-1.5,23c-1.7,14-1.5,28.5-5.2,41.9
			c-1.7,6.1,4.2,16-6.6,19.1c-4.5-1.8-9-2.9-14-2.9c-51.2,0-102.5-0.2-153.7-0.2c-7.6,0-14.1,2.1-21.4,6c-9.6,5.1-22.6,2.1-33.8-0.7
			c-7.8-1.9-14.8-2-22.5,0.1c-12.4,3.3-25.2,1.1-37.9,1.2c-32.9,0.3-66,2.3-98.7-0.6c-30.5-2.7-60.9-4.5-91.1-1.8
			c-23.3,2.1-46.6,2-69.9,3.7c-8.8,0.6-9.6-1.4-5.8-9c8.3-16.6,14.8-34.2,23.9-50.3c7.3-12.9,13-26.4,19.4-39.6
			c3.1-6.4,8.2-5.2,13.3-5.2c82.3,0,164.6,0,246.9,0c83,0,166.1,0,249.1,0C1774.7,2,1778.8,2.3,1782.9,2.4z M1379.7,88.4
			c1,1.3,2.1,2.5,3.1,3.8c1.1,2.4,1.9,4.9,4.9,5.5c0.5,0.1,1.7-0.5,1.7-1c0.7-3.8-2.7-4.8-4.8-6.6c-1.1-1-2.2-2.1-3.3-3.1
			c0-3.4-1.8-5.4-4.9-6.4c-0.4-0.4,0-2.5-1.5-0.8c0.6,0.2,1.1,0.4,1.7,0.6C1376.6,83.6,1377.2,86.4,1379.7,88.4z M1362.7,73.4
			c1.3-11.8-5.9-15.7-11.4-20.5c-1.4-1.3-3-2.2-4.8-0.4c-2.3,2.3-0.9,4,1,5.4C1353,61.5,1358.2,65.5,1362.7,73.4z"/>
	</g>
	<g>
		<path fill="#014C84" d="M1195,765.7c0,22.8,0.1,45.6-0.1,68.4c0,2.6,1.9,6.4-1.9,7.9c-2.6,1-4.6-0.7-6.5-3
			c-1.2-1.5-3.8-2.1-5.9-2.7c-24.2-7.2-46.8-18.7-69.7-28.8c-26.6-11.7-52.8-24.3-79.1-36.8c-17.3-8.3-34.3-16.6-53.1-21.2
			c-5.9-1.4-12.1-5-17.8-8.2c-5.7-3.1-7.5-9-5.7-15.5c3.4-12.2,7-24.3,10.6-36.5c0.4-1.4,1-3.8,1.8-3.9
			c14.8-2.5,12.5-16.5,15.8-25.5c16.6-45,31.7-90.5,47.3-135.9c4.5-13.2,21.2-28,34-27.1c9.1,0.6,18.1,5.9,24.8,11.9
			c9.3,8.4,19.8,15.3,29.6,22.8c16.5,12.7,29.4,28,40.6,45.1c12.2,18.5,20.2,38.8,26,60c6.8,24.6,8.1,50,8.8,75.3
			c0.5,17.9,0.1,35.8,0.1,53.8C1194.7,765.7,1194.9,765.7,1195,765.7z"/>
	</g>
	<g>
		<path fill="#014B84" d="M1525.9,331.8c42,2.7,81.9,5,121.8,8.1c21.4,1.6,42.7,4.7,64,6.6c6.9,0.6,8.2,2.6,7.4,9.6
			c-9,81.3-17.5,162.7-26.2,244.1c-2,18.6-4.8,37-6.7,55.6c-0.7,6.6-3.5,7.7-9.5,6.9c-16.5-2.3-32.7-6.5-49.1-9
			c-28-4.3-56.4-6.3-84.7-8.8c-6.6-0.6-8.7-2.4-8.3-9.5c4-64.9,11.2-129.5,18.1-194.1c2.9-27.4,3.5-54.5-9.7-79.8
			C1538,351.9,1532.3,342.9,1525.9,331.8z"/>
	</g>
	<g>
		<path fill="#004B84" d="M2.3,223.2c0-35.5,0.1-71-0.1-106.6C2.1,110,3,107,11,107c66.1,0.5,132.2,2.8,198.3,4.6
			c5.7,0.2,7,2.3,6.7,7.3c-3.7,61.2-1,122.5-1.7,183.8c-0.2,16.4-23.7,38.9-40.3,38.7c-31.4-0.3-62.8-0.9-94.1-1.5
			c-22.8-0.4-45.5,1.7-68.3,0.3c-8.3-0.5-9.5-3.1-9.4-10.4C2.5,294.3,2.3,258.8,2.3,223.2z"/>
	</g>
	<g>
		<path fill="#004B84" d="M570.2,2c101.1,0,202.1,0.1,303.2-0.2c9.3,0,11.9,2.1,11.6,11.5c-0.7,26.6-0.4,53.1-0.1,79.7
			c0.1,6.2-1.5,8.2-8,8.3c-64,0.3-127.9-2.7-191.8-4c-19.8-0.4-39.6-1.7-59.4-2.2c-16.2-0.4-31.3-3.7-45.7-11.6
			c-8-4.4-18.4-4.4-26.5-8.6c-33.9-17.3-70.4-16.5-106.8-16.4c-61.4,0.1-122.7-0.7-184-2.5c-6.7-0.2-9.1-1.4-8.7-8.6
			c0.9-12.7,1.1-25.4,0.9-38.1c-0.1-6,2-7.5,7.7-7.4C282.8,2.2,303,2,323.2,2C405.6,2,487.9,2,570.2,2z"/>
	</g>
	<g>
		<path fill="#014B84" d="M1058.1,2c48.3,0,96.5,0,144.8,0c12.4,0,19.6,11.2,14.3,22.4c-12.5,26.5-25.4,52.8-37.7,79.4
			c-2.9,6.4-7.9,4.6-12.4,4.6c-56.8,0-113.6-0.5-170.3-3c-14.9-0.7-29.9-1-44.9-0.4c-14.5,0.5-28.4-5-43-3.6
			c-4.5,0.5-6.4-1.6-6.4-6.6c0.2-28.8,0.4-57.6,0-86.4c-0.1-8.5,5.2-6.4,9.6-6.4C960.8,2,1009.5,2,1058.1,2z"/>
	</g>
	<g>
		<path fill="#014B84" d="M109.1,727c32.2,0,64.3,0.3,96.5-0.2c7.9-0.1,10,2.1,9.8,10c-1,39.6-1.6,79.2-1.9,118.8
			c-0.1,6.7-2.1,8.3-8.9,9c-64.5,6.7-129.1,2.5-193.7,1.7c-6.9-0.1-8.8-1.9-8.8-8.8c0.3-40.8,0.3-81.6,0-122.3c0-6.5,2-8,8.2-8
			c32.9,0.3,65.8,0.1,98.7,0.1C109.1,727.2,109.1,727.1,109.1,727z"/>
	</g>
	<g>
		<path fill="#014C84" d="M1439,129.9c-33.7,48.5-65.7,94.7-98,141.2c-10.3-9.6-23-15.5-34.4-23.1c-14.4-9.5-28.7-19.4-44.9-26.3
			c-12.7-5.4-21.4-16.8-32.7-24.6c-11.8-8.1-21.9-18.5-33.4-27c-6-4.4-7.4-8.4-3.9-14.7c2.1-3.9,5-7.9,5.7-12.1
			c1.7-10.8,8.8-12,17.7-12.2c25.4-0.4,50.8-1.3,76.2-2.1C1339.4,127.3,1387.6,130.5,1439,129.9z"/>
	</g>
	<g>
		<path fill="#024C85" d="M860.4,945.5c-6.3,21.8-12,43.7-19.1,65.2c-20,60.3-40.6,120.3-61,180.5c-3-1.6-5.4-3.1-8-4.1
			c-24-9.8-48-19.6-72-29.4c-6.7-2.8-12.5-7.5-19.5-9.8c-14.3-4.8-14.2-5.2-3.3-16.4c27-27.9,53.9-55.7,81-83.6
			c23.9-24.6,48.1-48.9,71.7-73.8c9.6-10.1,19.2-20.1,29.3-29.6C859.7,944.8,860.1,945.1,860.4,945.5z"/>
	</g>
	<g>
		<path fill="#014C84" d="M111.8,2c33.3,0,66.5,0.2,99.8-0.2c6.9-0.1,9.2,1.6,8.6,8.7c-1.1,12.3-1.7,24.6-1.8,36.9
			c-0.1,5.7-2.3,6.8-7.3,6.7c-55.3-0.7-110.5-1.3-165.8-1.9c-11.6-0.1-23.2-0.8-34.7-0.2c-7.5,0.4-8.7-2.6-8.4-9
			c0.5-10.8,0.6-21.7,0-32.5c-0.4-7.2,2.1-8.6,8.8-8.5C44.5,2.2,78.1,2,111.8,2z"/>
	</g>
	<g>
		<path fill="#024C85" d="M291.4,863.8c-12-0.1-23.9-0.3-35.9-0.3c-5.8,0-8.4-1.9-8.3-8.5c1-39.6,1.7-79.2,2.3-118.8
			c0.1-6.8,2.8-9.4,9.5-8.5c31,3.9,62.1,3.9,93.3,4.4c-2.7,13.8-5.6,27.6-8,41.4c-4.4,25.2-15,46.5-35.2,63.3
			C300.9,843.6,292.4,851.6,291.4,863.8z"/>
	</g>
	<g>
		<path fill="#014C84" d="M258.4,1129.1c-9.6-18.7-8.4-39.2-8.8-59.1c-1.2-57,1.1-114.2-2.3-171.2c-0.5-8.4,1.8-11.1,10.4-10.4
			c10,0.9,20.1,0.3,30.2,0.4c-0.9,70.3-1.8,140.5-2.8,210.8c0,2.1-0.2,5.2-1.5,6.2C274.7,1113.1,269.4,1124.2,258.4,1129.1z"/>
	</g>
	<g>
		<path fill="#064F87" d="M545.4,95.6c-21.2,3-42.3,1.3-63.3,1c-72.8-1.3-145.7-3.1-218.5-4.7c-5.4-0.1-11.3,1.5-11.1-7.8
			c0.2-8.7,5.2-8.2,11-7.9c78,4,156.2,1.3,234.2,4.2C515.4,81,529.1,91.7,545.4,95.6z"/>
	</g>
	<g>
		<path fill="#064F87" d="M633.8,1180.4c0.7-1.1,1.1-1.8,1.5-2.4c17.4-20.2,24.4-20.9,47.2-5.4c1.5,1,3.2,1.7,4.9,2.3
			c23.6,9.6,47.1,19.3,70.8,28.8c13.9,5.5,17.2,18.3,7.7,29.9c-2.4,3-5.1,1.8-6.9,0.7c-20.9-11.7-45.3-15.3-65.6-28.2
			c-2.1-1.4-4.8-2-7.3-2.8C668.3,1197.5,651.9,1188.2,633.8,1180.4z"/>
	</g>
	<g>
		<path fill="#0E548A" d="M110.1,74.2c32.5,0,65,0.1,97.5-0.1c6.7,0,10,1.2,10.2,9.1c0.2,8.9-4.7,8.5-10.6,8.3
			C141.5,89,75.8,87.1,10.1,87.2c-6.8,0-7.8-2.7-8.1-8.5c-0.3-6.9,3.5-6.8,8.4-6.8c33.2,0.1,66.4,0.1,99.7,0.1
			C110.1,72.7,110.1,73.4,110.1,74.2z"/>
	</g>
	<g>
		<path fill="#A0D1F6" d="M2.3,1277.6c10.7-0.8,19.9-6.3,28.7-11.3c17.6-10.1,36.2-18,54.1-27.2c31.6-16.1,64.1-30.3,95.5-46.7
			c10.1-5.3,20.1-10.7,30.8-14.6c9-3.3,13.4-11.3,19.7-17.2c1.7,4.3,5.6,7.8,5.1,12.9c-23.9,9-44.4,24.5-67.1,35.7c-2,1-3.9,2.2-6,3
			c-33.8,14-65.1,33.1-98.2,48.7c-20.9,9.8-40.6,22.1-61.9,31.3C2.8,1287.3,2.5,1282.4,2.3,1277.6z"/>
	</g>
	<g>
		<path fill="#A0D1F6" d="M258.4,1129.1c10.9-4.9,16.3-16,25.2-23.2c1.3-1.1,1.4-4.1,1.5-6.2c1-70.3,1.9-140.5,2.8-210.8
			c3,0.1,5.9,0.3,8.9,0.4c0,69.8,0,139.7,0.2,209.5c0,13.7-3.8,24.8-17,31c-6.9,3.3-11.1,9.7-15.9,15.3
			C262.1,1139.7,260.3,1134.4,258.4,1129.1z"/>
	</g>
	<g>
		<path fill="#93C7EE" d="M543.5,650.5c-12.1-0.3-21.8-3.7-28.7-15.3c-8.4-14.1-24.6-16.2-38.8-17.6c-20.7-2-41.8,0-62.7-1.3
			c-11.9-0.7-21.2,3.8-31,9c-4.4,2.4-4.7,6.3-5.5,10.3c-4.9,24.5-9.9,48.9-14.9,73.4c-1.7,0-3.4,0.1-5.1,0.1
			c5.1-24.1,10.2-48.1,15.2-72.2c2.5-12.3,14.2-25.8,26.5-25.8c30.5-0.1,61.1,1.5,91.6,2.8c16.9,0.7,27.7,13.3,39.8,22.6
			c4.6,3.5,9.1,7.3,13.9,10.8C543.7,648.4,543.6,649.5,543.5,650.5z"/>
	</g>
	<g>
		<path fill="#93C7EE" d="M291.4,863.8c1-12.2,9.5-20.2,17.8-27.1c20.1-16.7,30.8-38,35.2-63.3c2.4-13.9,5.3-27.6,8-41.4
			c1.7,0,3.4,0.1,5.1,0.1c-3.8,19.3-5.9,39.1-11.9,57.7c-7,21.9-19.9,41-36.9,57c-5,4.7-9.1,9.8-7.9,17.4
			C297.7,864.1,294.5,863.9,291.4,863.8z"/>
	</g>
	<g>
		<path fill="#0E548A" d="M1657.2,1150.5c0.6,27-5.8,53.5-6.8,80.4c-0.1,2.8-1.3,5-4.1,6C1648.1,1207.9,1651.8,1179.1,1657.2,1150.5
			z"/>
	</g>
	<g>
		<path fill="#0E548A" d="M1646.2,1239.5c5.8,10.5-0.7,20.8-0.7,31.2c0.1,13.2-2.7,26.3-4,39.5c-0.3,3.2-1.2,5.7-3.9,7.5
			C1640.1,1291.6,1641.7,1265.4,1646.2,1239.5z"/>
	</g>
	<g>
		<path fill="#0E548A" d="M1727.1,496.1c3.9,4.6,2,10,1.5,14.9c-1.8,18.4-4.3,36.7-6.2,55.1c-0.5,4.5-1.8,8.6-3.8,12.6
			C1720.3,551.1,1722.9,523.6,1727.1,496.1z"/>
	</g>
	<g>
		<path fill="#0E548A" d="M1762.9,172.7c4.6,4.5,0.3,9.1-0.1,13.5c-1.4,16.9-3,33.8-4.6,50.7c-0.4,4.4-0.8,8.9-4.4,12.1
			C1754.8,223.3,1759.1,198,1762.9,172.7z"/>
	</g>
	<g>
		<path fill="#0E548A" d="M1753.4,253.3c2.2,1.3,2.6,3.4,2.4,5.8c-2.2,19.8-4.4,39.6-6.6,59.5c-0.3,2.5-1.2,4.2-3.8,4.6
			C1748.2,299.8,1748.6,276.3,1753.4,253.3z"/>
	</g>
	<g>
		<path fill="#0E548A" d="M1744.9,334.4c0.6,0.9,1.8,1.9,1.8,2.7c-2.3,23.9-4.8,47.8-7.3,71.7c-0.1,0.7-1.8,1.1-2.7,1.7
			C1738.6,385,1741,359.6,1744.9,334.4z"/>
	</g>
	<g>
		<path fill="#0E548A" d="M1706.4,703.6c-3.5,12.9,0.2,27-6.5,39.4c-1-11.8,2.5-23.2,2.7-35C1702.6,705.6,1703.8,703.9,1706.4,703.6
			z"/>
	</g>
	<g>
		<path fill="#0E548A" d="M1736.3,413.2c2.8,13.8,1.1,27.2-4.5,40.1C1731.4,439.7,1735.2,426.6,1736.3,413.2z"/>
	</g>
	<g>
		<path fill="#0E548A" d="M1699.7,745.2c2.2,9.5,1.1,18.7-2.6,27.7C1697.6,763.6,1696.7,754.2,1699.7,745.2z"/>
	</g>
	<g>
		<path fill="#0E548A" d="M1713.6,630.5c-1.9,5.9,3.2,13.2-3.5,18.2C1712.1,642.8,1709,635.9,1713.6,630.5z"/>
	</g>
	<g>
		<path fill="#0E548A" d="M1709.3,653.3c2.8,3.2,2.8,6.2-0.5,9.1C1709,659.3,1709.1,656.3,1709.3,653.3z"/>
	</g>
	<g>
		<path fill="#0E548A" d="M1697.6,773.2c-0.6,3.3,0.7,6.9-1.5,9.9C1695.8,779.7,1695,776.2,1697.6,773.2z"/>
	</g>
	<g>
		<path fill="#024C85" d="M859.4,944.5c0.6-1,1.3-1.3,2.1-0.2c0.1,0.1-0.7,0.8-1.1,1.2C860.1,945.1,859.7,944.8,859.4,944.5z"/>
	</g>
	<g>
		<path fill="#0E548A" d="M1745.2,327.6c1.6,0.8,1.5,1.6-0.1,2.2C1745.1,329.1,1745.1,328.4,1745.2,327.6z"/>
	</g>
	<g>
		<path fill="#93C7EE" d="M1760.5,886.2c-0.4-0.5-0.3-1,0.1-1.4c10.3,1.1,20.5,2.3,30.1,6.5c-0.3,0.7-0.6,1.4-0.9,2.1
			C1779.3,893.7,1770.3,888.3,1760.5,886.2z"/>
	</g>
	<g>
		<path fill="#014C84" d="M1789.7,893.4c0.3-0.7,0.6-1.4,0.9-2.1c2.6,0.5,5,1.3,4.9,4.5c0,0.6-1.3,1.7-2.1,1.8
			C1790.5,897.8,1790.1,895.6,1789.7,893.4z"/>
	</g>
	<g>
		<path fill="#014C84" d="M1803.2,893.5c0.3,2.2,0.6,4.3,0.8,6.5c-3.6,0.2-5.5-1.4-5.1-5.1C1799.4,891.9,1800.9,891.2,1803.2,893.5z
			"/>
	</g>
	<g>
		<path fill="#014C84" d="M1814.5,897.5c-3.1,0.6-4.6-1-5.2-3.8C1812.1,893.5,1814.1,894.4,1814.5,897.5z"/>
	</g>
	<g>
		<path fill="#024C85" d="M1789.5,536.4c6.1-0.2,10.6,1.5,9,8.9c-1.4,6.2,2.7,7.4,7.1,9c9.6,3.4,19.9,5.2,28.6,11.2
			c5,3.4,9.4,3.6,9.9-5.1c0.3-5.7,2.8-11.3,4.7-18c4.6,4.2,9.3,4.9,13.8,6.4c3.6,1.2,11.3-1.1,10,5.6c-1.1,5.5,3.2,15.6-8.6,15.8
			c-4.2,0.1-4.1,3.5-4.6,6.4c-2.9,18.4-5.6,36.8-8.8,55.1c-1.3,7.6,0,12.4,8.4,13.3c1.4,0.2,2.8,0.9,4.3,1.3
			c15.3,4.7,15.4,4.8,11.6,20.3c-4.5,18.7-6.6,38-12.6,56.3c-21.6-2.1-41.3-11-62-16.5c-23-6.1-23.4-5.9-21.7-29.4
			C1781.9,630.2,1785.8,583.3,1789.5,536.4z"/>
	</g>
	<g>
		<path fill="#024C85" d="M1657.2,1324.7c0.3-0.7,1-1.6,0.8-2.1c-9.5-17.6-1.3-35.5,0.6-52.7c2.8-25.6,4.4-51.4,7.8-76.9
			c1.5-11.1,0.9-22.8,4.7-33c3.9-10.6,0.4-20.5,2-30.6c1.8-11.8,2.9-23.6,4.4-35.4c1.1-8.1-1.1-17.1,6.4-23.4
			c-5.6-5.4-2.5-11.9-1.9-18c1.5-17.1,3.2-34.1,4.7-51.2c0-0.4,0.1-0.7,0.1-1.1c0.9-7.5,6.4-13.3,3.4-22.7c-2.5-8,1.9-18.1,2.9-27.4
			c1-9.3,0.6-18.8,2.7-27.8c4.1-17,3.5-34.3,4.6-51.5c8.5-0.8,15.9,3.8,24.1,4.6c0.2,26.2-4.8,51.9-7.2,77.8
			c-4.1,43.8-9.6,87.5-13.6,131.3c-4.8,53.1-11.9,106-18.1,159c-2.5,21.5-5.3,43-7.9,64.5C1675.6,1326,1675.7,1326,1657.2,1324.7z"
			/>
	</g>
	<g>
		<path fill="#024C85" d="M1722.5,685.9c1-2.3-2.2-6.6,3.3-6.6c2.5,0,4-2.1,2.7-3.5c-6.5-6.8-3.4-15.2-3-22.4
			c1.1-18.9,2.7-37.9,6.5-56.4c2.9-14,2.1-28.1,4-42c2-14.7,2.2-29.8,5-44.3c5.4-28.7,3.9-58.2,10.6-86.6c1.7-7.3,0.5-14.1,1.7-21
			c1.5-8,1.9-16.2,2.7-24.4c0.8-8.5,1.7-17,2.4-25.6c0.5-5.9,0.6-11.3,3.8-17c2.8-5-1.5-11.7-0.2-18.5c3-16,3.2-32.6,5.5-48.7
			c4.2-29.5,4.7-59.4,9.6-88.7c2.3-13.8,1.4-27.6,3.8-41.2c16.9-0.2,17-0.2,15.2,16c-12,112.6-23.8,225.2-36.1,337.7
			c-6.5,59.8-13.2,119.6-15.5,179.7c-0.7,17.6-0.7,17.6-17.6,14.3C1725.4,686.6,1723.9,686.2,1722.5,685.9z"/>
	</g>
	<g>
		<path fill="#024C85" d="M1702.4,868.8c1-13.5,1.7-26.8,5.2-40.3c1.8-6.8,0.6-16,1.3-24.1c1.5-16.3,1.1-33.1,5.3-48.6
			c4.5-16.3,0.6-32.6,3.9-48.6c4.8,0.8,9.5,1.5,14.3,2.3c7.4,1.1,9.1,5.3,8.7,12.5c-3,49.8-10,99.3-14.6,148.9
			C1718.2,873.3,1710.5,868.7,1702.4,868.8z"/>
	</g>
	<g>
		<path fill="#064F87" d="M1800.9,421.6c9.9-0.1,18.7,4.5,27.9,6.9c6.8,1.7,4.3,7.6,3.4,11.1c-3.2,11.7,1.7,17.1,12.4,20.2
			c11.6,3.4,21.9,11.6,35.2,8.2c3.1-0.8,4.9,1.2,4.7,4.5c-0.1,1.1,0.1,2.3-0.3,3.3c-2.6,8,0.7,22.3-5.7,23.4
			c-10.5,1.9-22-4.5-32.2-9.8c-10-5.2-20.1-9.4-31.5-9.1c-2.2,0-4.7-0.1-6.5,0.8c-3,1.5-11.1,29.5-10.3,32.9
			c1.9,7.9,1.4,14.9-8,17.7C1793.5,495,1797.2,458.3,1800.9,421.6z"/>
	</g>
	<g>
		<path fill="#0E548A" d="M1807.6,356.4c16.7,7.4,33.5,14.6,49.9,22.6c2.7,1.3,5.6,3.5,8.5,4.7c9.7,4,2.8,11.1,1.6,15.2
			c-1.8,6-7.3,1.2-9.4-1c-2.9-2.9-6.2-3.9-9.6-5.2c-14.8-5.7-29.3-12.2-42.9-20.5C1806.3,366.9,1807,361.6,1807.6,356.4z"/>
	</g>
	<g>
		<path fill="#93C7EE" d="M1702.4,868.8c8.1,0,15.8,4.5,24.1,2c-0.7,1.6-1.3,3.1-2,4.7c-8.2-0.8-15.6-5.4-24.1-4.6
			C1701.1,870.2,1701.7,869.5,1702.4,868.8z"/>
	</g>
	<g>
		<path fill="#93C7EE" d="M1915.5,736.5c0,0.7-0.1,1.4-0.3,2.1c-3.4,0-7.2,1.6-9.8-2.2C1908.8,736.4,1912.2,736.5,1915.5,736.5z"/>
	</g>
	<g>
		<path fill="#93C7EE" d="M1883.6,729.8c3.5-3.7,4.7-2.1,4.8,2.1C1886.2,732.7,1884.8,731.6,1883.6,729.8z"/>
	</g>
	<g>
		<path fill="#93C7EE" d="M1896.5,734.2c3.3-0.5,6.5-0.8,8.9,2.2C1902.1,736.7,1898.8,737.5,1896.5,734.2z"/>
	</g>
	<g>
		<path fill="#93C7EE" d="M1888.6,731.9c2.9-0.5,5.8-0.8,7.7,2.2C1893.5,734.3,1890.3,735.7,1888.6,731.9z"/>
	</g>
	<g>
		<path fill="#A0D1F6" d="M543.5,650.5c0.1-1,0.2-2.1,0.3-3.1c21.9,2.4,33.9-7.5,38.5-28.9c4-18.5,4.3-37.1,3.6-55.7
			c-1.3-33.8,6.3-65.7,17.1-97.3c1.6-4.6,2.2-9.5,4.4-13.8c8.3-16.7,8.7-33.3,0.8-50.2c-0.9-2-1.2-4.3-1.5-6.5
			c-0.2-1.6,0.7-2.8,2.3-3.4c2.2-0.9,3.8,0,4.3,2c3.3,12.9,12,23.5,8.2,39.2c-9.4,37.9-21.1,75.4-25.4,114.5c-1,9-0.1,17.6,0.6,26.6
			c2,28.2-0.7,55.3-24.3,75.9C562.1,658.5,553,650.5,543.5,650.5z"/>
	</g>
	<g>
		<path fill="#A0D1F6" d="M82,1218.4c0.5,3-2.4,3-4.2,4c-19.6,10.8-19.6,10.8-27.5-10.5c-3.3-9-6.3-18.1-10.1-27
			c-1.9-4.5-1.1-6.8,3.5-8c0.7-0.2,1.4-0.6,2.1-0.8c6.1-1.4,10.8-11,15.8-7.5c4.9,3.3,6.4,11.9,8.9,18.3
			C74.6,1197.3,78.2,1207.8,82,1218.4z"/>
	</g>
	<g>
		<path fill="#A0D1F6" d="M36.7,1160.7c-6.7-3.5-7.1-11.3-7.3-16.7c-0.3-8,8.7-11.8,14.4-11.6c7.9,0.4,7.6,10.7,8.4,16
			C53.5,1157.3,43,1156.7,36.7,1160.7z"/>
	</g>
	<g>
		<path fill="#93C7EE" d="M1362.7,73.4c-4.6-7.9-9.7-11.9-15.1-15.6c-2-1.3-3.3-3-1-5.4c1.8-1.8,3.4-0.8,4.8,0.4
			C1356.8,57.7,1364,61.5,1362.7,73.4z"/>
	</g>
	<g>
		<path fill="#93C7EE" d="M1384.7,90.2c2.1,1.8,5.5,2.8,4.8,6.6c-0.1,0.4-1.2,1.1-1.7,1c-3-0.6-3.8-3.1-4.9-5.5
			C1383.5,91.6,1384.1,90.9,1384.7,90.2z"/>
	</g>
	<g>
		<path fill="#93C7EE" d="M1376.5,80.7c3.1,1,4.9,3,4.8,6.4c-0.6,0.4-1.1,0.9-1.6,1.4c-2.5-2.1-3.2-4.9-3.1-7.9L1376.5,80.7z"/>
	</g>
	<g>
		<path fill="#93C7EE" d="M1382.8,92.2c-1-1.3-2.1-2.5-3.1-3.8c0.5-0.5,1.1-1,1.6-1.4c1.1,1,2.2,2.1,3.3,3.1
			C1384.1,90.9,1383.5,91.6,1382.8,92.2z"/>
	</g>
	<g>
		<path fill="#93C7EE" d="M1376.7,80.5c-0.6-0.2-1.1-0.4-1.7-0.6c1.5-1.7,1.1,0.4,1.6,0.8C1376.5,80.7,1376.7,80.5,1376.7,80.5z"/>
	</g>
</g>
<g>
	<path fill="#FFFFFF" d="M586.3,334.1l-1.1,3h-15.6c-5.8,0-10.3-1.2-13.5-3.7c-1.3,1.8-2.7,3.3-4,4.5l-3-2c3.4-2.9,5.7-6.4,6.8-10.3
		h-6v-2.9c2.1-2.1,3.8-4.2,5.1-6.2h-5.8v-2.9h10v2.8c-1.2,2-2.7,4.1-4.8,6.3h5.1v2.9c-0.5,1.8-1.2,3.5-2,5.3
		c2.8,2.2,6.7,3.3,11.9,3.3H586.3z M559.2,310.4l-2.6,2.3c-1.9-1.8-3.9-3.3-6-4.6l2.4-2.3C554.9,306.8,557,308.3,559.2,310.4z
		 M585.4,331.3h-21.4v-13.2c-0.7,0.8-1.4,1.7-2.2,2.5l-2-2.8c2.8-3.2,5.1-7.2,7-12l3.6,0.7c-0.5,1.4-1.2,3-2.1,4.5h5.7
		c-0.5-1.2-1.3-2.6-2.2-4.3l3.4-1c1.1,2,2,3.7,2.5,5.2h7.2v2.8H577v3h7.2v2.7H577v3h7.2v2.7H577v3.2h8.3V331.3z M573.5,316.8v-3
		h-5.9v3H573.5z M573.5,322.5v-3h-5.9v3H573.5z M573.5,328.5v-3.2h-5.9v3.2H573.5z"/>
	<path fill="#FFFFFF" d="M603.1,306.4l-1,2.5c-0.4,0.9-0.7,1.6-1.1,2.3l-1.1,2.1v24.2H596v-18.1c-0.9,1-1.9,2.1-3.1,3.2l-1.9-3.3
		c3.3-3.1,6-7.6,8.2-13.5L603.1,306.4z M627.6,329.1c-0.1,2.4-0.3,4.1-0.7,5c-0.3,0.9-0.8,1.5-1.3,1.9s-1.1,0.7-1.8,0.9
		c-0.7,0.2-2.8,0.3-6.3,0.3c-4.4,0-7-0.1-7.8-0.3c-0.8-0.2-1.3-0.6-1.7-1.3s-0.6-1.4-0.6-2.3v-27.1h3.8v10.7h15.8v3.2h-15.8v13
		c0,0.4,0.2,0.6,0.7,0.7c0.5,0.1,2.3,0.2,5.5,0.2c2.9,0,4.6-0.1,5.3-0.4s1-2.2,1-5.8L627.6,329.1z"/>
	<path fill="#FFFFFF" d="M652,332.6c-6,2.1-12.1,3.8-18.2,5l-1.1-3.1c4.2-0.9,7.8-1.8,10.9-2.7v-12.5h-10.1v-3.3h10.1v-10h3.9v24.6
		c1.2-0.3,2.7-0.8,4.5-1.4L652,332.6z M669.5,328.2c-0.1,1.9-0.3,3.7-0.7,5.3c-0.4,1.6-1,2.6-1.9,3.1c-0.9,0.5-2.7,0.7-5.6,0.7
		c-1.8,0-3.2-0.1-4.2-0.2c-1-0.1-1.8-0.4-2.3-1c-0.5-0.6-0.8-1.4-0.8-2.4v-27.6h3.9v10h10.8v3.3h-10.8v13.9c0,0.3,0.2,0.5,0.5,0.6
		c0.3,0.1,1.4,0.2,3.3,0.2c1.2,0,2.1-0.1,2.7-0.2s0.9-1,1.1-2.6s0.3-3,0.3-4.1L669.5,328.2z"/>
	<path fill="#FFFFFF" d="M689.6,333.4c-4.7,1.7-9.4,3-14.1,4l-1-2.9c0.8-0.2,1.4-0.4,1.8-0.4v-13.9h3.3v13c0.4,0,1-0.2,2-0.5v-15
		H676V307h12.5v10.7h-3.4v4.6h4v3h-4v6.3c1.2-0.3,2.6-0.8,4.3-1.3L689.6,333.4z M684.9,314.6V310h-5.3v4.6H684.9z M711.6,320.8
		l-2,2.8c-3.6-1-6.8-2.3-9.5-3.9c-3,1.6-6.2,2.9-9.3,4l-2-2.8c3.8-1.1,6.6-2.2,8.4-3.3c-1.1-0.8-2.2-2-3.3-3.6
		c-0.9,0.7-1.8,1.3-2.7,1.9l-2.2-2.4c3.7-2.4,6.4-4.9,8-7.6l3.5,0.9c-0.3,0.6-0.7,1.2-1.1,1.8h9.7l0,3.1c-2,2.7-4,4.7-5.8,6
		C705.3,318.8,708.1,319.9,711.6,320.8z M709,337.5h-3.8v-1.2h-9.8v1.2h-3.8v-13.3H709V337.5z M705.2,333.3v-6h-9.8v6H705.2z
		 M705,311.7h-8.1l-0.2,0.2c0.8,1.5,2,2.8,3.5,4C702,314.6,703.6,313.2,705,311.7z"/>
</g>
<g>
	<path fill="#FFFFFF" d="M158.2,486.2c-2.9,2-6.6,3.7-11.2,5.3l-2.1-2.8c3.9-1.2,7.4-2.7,10.6-4.7L158.2,486.2z M180.6,482.7
		l-15.3,0l0,9.4l-3.8,0l0-9.4l-15.3,0l0-2.8l34.5,0L180.6,482.7z M180.3,476.8l-3.7,0l0-3.4l-26.3,0l0,3.4l-3.8,0l0-6.3l14.9,0
		l-0.7-1.7l3.9-0.6l1,2.3l14.7,0L180.3,476.8z M178.5,467.8l-30.2,0l0-6.3l3.6,0l0,3.4l9.5,0l0-4.2l3.7,0l0,4.2l9.5,0l0-3.4l3.8,0
		L178.5,467.8z M173.9,478.1l-21.1,0l0-2.8l21.1,0L173.9,478.1z M181.5,489l-2.3,2.7c-2.6-1.6-6-3.3-10.4-5.2l2.3-2.4
		C174.3,485.3,177.8,487,181.5,489z"/>
	<path fill="#FFFFFF" d="M155.2,512.2c-0.7,1.4-1.4,2.5-1.9,3.4l-0.8,1.2l0,18.5l-3.5,0l0-14c-1.1,1-2,1.8-2.6,2.3l-1.9-3.1
		c2.9-2.6,5.4-5.8,7.5-9.5L155.2,512.2z M154.6,504.9c-2.4,3.7-5.1,6.5-8,8.5l-1.9-2.9c2.6-1.9,4.8-4.2,6.6-7L154.6,504.9z
		 M160.4,526.7c-1.3,3.4-2.6,5.9-3.9,7.8l-3-1.6c1.4-2,2.6-4.4,3.7-7.2L160.4,526.7z M181.5,524.1l-27,0l0-2.7l27,0L181.5,524.1z
		 M180.6,509.1l-10.6,0l0,2.1l9.6,0l0,8.5l-23,0l0-8.5l9.6,0l0-2l-10.6,0l0-2.8l10.6,0l0-2.6l3.8,0l0,2.6l10.6,0L180.6,509.1z
		 M163.1,517l0-3.2l-3,0l0,3.2L163.1,517z M175.7,530.5c-0.3,1.8-0.8,3-1.5,3.6c-0.7,0.6-1.8,0.9-3.2,0.9c-2.6,0-4.6,0-5.8,0
		s-2.2-0.3-2.7-0.8c-0.6-0.5-0.8-1.3-0.8-2.4l0-5.9l3.6,0l0,5.3c0,0.3,0.1,0.6,0.4,0.7c0.3,0.1,1.1,0.2,2.3,0.2
		c1.7,0,2.8-0.1,3.2-0.3s0.7-1.1,0.9-2.6L175.7,530.5z M172.4,527.9l-2.6,1.8c-1.1-1.3-2.4-2.4-3.7-3.3l2.6-1.8
		C170.2,525.5,171.4,526.6,172.4,527.9z M169.7,517l0-3.2l-3,0l0,3.2L169.7,517z M176,517l0-3.2l-3,0l0,3.2L176,517z M182.1,532.3
		l-3.2,1.6c-0.9-2.2-2.3-4.5-4.2-7l3.1-1.5C179.9,528.1,181.3,530.4,182.1,532.3z"/>
	<path fill="#FFFFFF" d="M159.9,574.4c-4.7,1.7-9.4,3-14.1,3.9l-1-2.9c0.8-0.2,1.4-0.4,1.8-0.4l0-13.9l3.3,0l0,13c0.4,0,1-0.2,2-0.5
		l0-15l-5.5,0l0-10.7l12.5,0l0,10.7l-3.4,0l0,4.6l4,0l0,3l-4,0l0,6.3c1.2-0.3,2.6-0.7,4.3-1.3L159.9,574.4z M155.2,555.7l0-4.6
		l-5.3,0l0,4.6L155.2,555.7z M182,561.8l-2,2.8c-3.6-1-6.8-2.4-9.5-3.9c-3,1.6-6.2,2.9-9.3,4l-2-2.8c3.8-1.1,6.6-2.2,8.4-3.3
		c-1.1-0.8-2.2-2-3.3-3.6c-0.9,0.7-1.8,1.3-2.7,1.9l-2.2-2.4c3.7-2.4,6.4-4.9,8-7.6l3.5,0.9c-0.3,0.6-0.7,1.2-1.1,1.8l9.7,0l0,3.1
		c-2,2.7-4,4.7-5.8,6C175.6,559.9,178.4,560.9,182,561.8z M179.3,578.5l-3.8,0l0-1.2l-9.8,0l0,1.2l-3.8,0l0-13.3l17.3,0L179.3,578.5
		z M175.5,574.3l0-6l-9.8,0l0,6L175.5,574.3z M175.3,552.7l-8.1,0l-0.2,0.2c0.8,1.5,2,2.8,3.5,4C172.4,555.7,174,554.3,175.3,552.7z
		"/>
	<path fill="#FFFFFF" d="M181.4,606.8l-36.4,0l0-3.2l36.4,0L181.4,606.8z"/>
	<path fill="#FFFFFF" d="M161.9,635.9c-3.2,0.9-6.8,1.6-10.9,2.1l0,3l8.6,0l0,2.8l-8.6,0l0,3.8l8.7,0l0,2.9l-8.7,0l0,4.7
		c2.9-0.5,6.4-1.3,10.3-2.3l0.2,3c-4.1,1.1-7.6,1.9-10.5,2.3l0,6.6l-3.7,0l0-5.9l-1.8,0.2l-0.6-2.9l2.4-0.3l0-20.3
		c4.5-0.4,8.7-1.2,12.7-2.4L161.9,635.9z M182,662.4l-2.2,2.8c-3.3-1.2-6.3-2.6-8.9-4.3c-2.4,1.7-5.5,3.1-9.5,4.2l-2-2.8
		c3.5-0.8,6.5-2,8.9-3.5c-2-2.1-3.7-4.5-5-7.2l-1.3,0l0-3.1l16.9,0l0,3.1c-1.3,2.5-3,4.9-5.2,7.1C175.8,660.1,178.6,661.4,182,662.4
		z M181.5,646.4l-5.1,0c-0.8,0-1.5-0.3-2-0.8c-0.5-0.5-0.8-1.1-0.8-1.7l0-6.6l-5.5,0c0.1,4.7-1.5,8-4.7,10l-3.2-2.1
		c2.8-1.3,4.2-3.9,4.2-7.8l0-3.1l13,0l0,8.5c0,0.1,0.1,0.3,0.3,0.4c0.2,0.2,0.4,0.2,0.5,0.2l3.3,0L181.5,646.4z M174.9,651.5l-7.6,0
		c1,2.1,2.3,3.8,3.8,5.1C172.5,655.2,173.8,653.5,174.9,651.5z"/>
</g>
<g>
	<path fill="#FFFFFF" d="M1168.4,324.7c-6.3-1-12.4-2.4-18.4-4.2l0.5-3.2c4.1,1.2,7.7,2.2,10.9,2.8l5.9-11l-8.9-4.8l1.6-2.9l8.9,4.8
		l4.7-8.8l3.4,1.8l-11.7,21.7c1.2,0.3,2.7,0.5,4.6,0.9L1168.4,324.7z M1185.9,329.1c-1,1.7-2.1,3.1-3.2,4.3
		c-1.1,1.2-2.1,1.8-3.1,1.8c-1,0-2.7-0.7-5.3-2c-1.6-0.8-2.8-1.6-3.6-2.1c-0.8-0.6-1.3-1.2-1.6-2c-0.2-0.8-0.1-1.6,0.4-2.5
		l13.1-24.3l3.4,1.8l-4.7,8.8l9.5,5.1l-1.6,2.9l-9.5-5.1l-6.6,12.2c-0.1,0.2-0.1,0.5,0.1,0.7c0.2,0.3,1.1,0.8,2.8,1.7
		c1.1,0.6,1.9,0.9,2.4,1.1c0.6,0.2,1.3-0.4,2.2-1.8c0.9-1.4,1.7-2.5,2.2-3.4L1185.9,329.1z"/>
	<path fill="#FFFFFF" d="M1164.4,369.7c-1.4,1.8-2.5,3-3.4,3.4c-0.9,0.5-1.8,0.6-2.7,0.3c-0.9-0.2-2.6-1-5.1-2.4
		c-4.6-2.5-7.3-4.1-8.1-5c-0.9-0.9-0.9-2-0.1-3.6l3-5.6l-11.5-6.2l5.6-10.4l3.4,1.8l-4.1,7.7l8.1,4.4l5.3-9.9l-14.3-7.7l1.5-2.7
		l14.3,7.7l1.9-3.5l3.4,1.8l-1.9,3.5l14.3,7.7l-1.5,2.7l-14.3-7.7l-5.3,9.9l8.1,4.4l4.1-7.7l3.4,1.8l-5.6,10.4l-11.5-6.2l-2.8,5.2
		c-0.2,0.3-0.2,0.5,0,0.7c0.1,0.2,0.8,0.6,1.9,1.4c1.2,0.7,2.5,1.5,4.1,2.3c1.9,1,3,1.6,3.5,1.6c0.4,0.1,0.9,0,1.3-0.3
		c0.4-0.3,1.2-1.2,2.4-2.9L1164.4,369.7z"/>
	<path fill="#FFFFFF" d="M1123.3,399.5c-4.9-0.8-9.7-1.8-14.3-3.2l0.5-3c0.8,0.2,1.4,0.4,1.8,0.5l6.6-12.2l2.9,1.6l-6.2,11.5
		c0.4,0.1,1,0.3,1.9,0.5l7.1-13.2l-4.9-2.6l5.1-9.4l11,5.9l-5.1,9.4l-3-1.6l-2.2,4.1l3.5,1.9l-1.4,2.6l-3.5-1.9l-3,5.6
		c1.2,0.3,2.6,0.6,4.4,0.8L1123.3,399.5z M1138.5,412.3l-3.4-1.8l0.6-1.1l-8.6-4.6l-0.6,1.1l-3.3-1.8l6.3-11.7l15.3,8.2
		L1138.5,412.3z M1128.1,380.7l2.2-4.1l-4.7-2.5l-2.2,4.1L1128.1,380.7z M1137.1,406.8l2.8-5.3l-8.6-4.6l-2.8,5.3L1137.1,406.8z
		 M1148.7,398.8l-3.1,1.5c-2.7-2.6-4.8-5.3-6.5-8c-3.4,0-6.8-0.3-10.1-0.9l-0.4-3.5c3.9,0.8,6.8,1.2,9,1.1c-0.6-1.2-1-2.8-1.2-4.7
		c-1.1,0.2-2.2,0.3-3.3,0.4l-0.8-3.2c4.4-0.3,7.9-1.3,10.6-2.9l2.7,2.5c-0.5,0.4-1.2,0.8-1.9,1.1l8.5,4.6l-1.4,2.7
		c-3.1,1.4-5.7,2.3-8,2.6C1144,394.1,1146,396.3,1148.7,398.8z M1147.2,387.6l-7.2-3.9l-0.2,0.1c0,1.7,0.4,3.4,1.2,5.2
		C1143.2,388.9,1145.2,388.4,1147.2,387.6z"/>
</g>
<g>
	<g>
		<path fill="#FF7BAC" d="M1037.2,732.1c0,2.7-6,5-13.4,5c-7.4,0-13.4-2.2-13.4-5c0-2.7,6-5,13.4-5
			C1031.2,727.1,1037.2,729.3,1037.2,732.1z"/>
		<path fill="#FF7BAC" d="M981.9,627.9c0-23.1,18.8-41.9,41.9-41.9c23.1,0,41.9,18.8,41.9,41.9c0,20.9-15.4,38.3-35.5,41.4
			l-6.4,62.8l-6.4-62.8C997.3,666.2,981.9,648.8,981.9,627.9z"/>
	</g>
	<g>
		
			<rect x="1001.2" y="611.3" transform="matrix(6.123234e-17 -1 1 6.123234e-17 396.4142 1651.2206)" fill="#FFFFFF" width="45.2" height="32.3"/>
		<g>
			<path fill="#FFFFFF" d="M1004.9,644v5.2c0,0.3-0.4,0.6-0.9,0.6h-4c-0.5,0-0.9-0.3-0.9-0.6V644c0-0.3,0.4-0.6,0.9-0.6h4
				C1004.5,643.3,1004.9,643.6,1004.9,644z"/>
			<path fill="#FFFFFF" d="M1004.9,634.4v5.2c0,0.3-0.4,0.6-0.9,0.6h-4c-0.5,0-0.9-0.3-0.9-0.6v-5.2c0-0.3,0.4-0.6,0.9-0.6h4
				C1004.5,633.7,1004.9,634,1004.9,634.4z"/>
			<path fill="#FFFFFF" d="M1004.9,625.1v5.2c0,0.3-0.4,0.6-0.9,0.6h-4c-0.5,0-0.9-0.3-0.9-0.6v-5.2c0-0.3,0.4-0.6,0.9-0.6h4
				C1004.5,624.5,1004.9,624.8,1004.9,625.1z"/>
			<path fill="#FFFFFF" d="M1004.9,615.6v5.2c0,0.3-0.4,0.6-0.9,0.6h-4c-0.5,0-0.9-0.3-0.9-0.6v-5.2c0-0.3,0.4-0.6,0.9-0.6h4
				C1004.5,614.9,1004.9,615.2,1004.9,615.6z"/>
			<path fill="#FFFFFF" d="M1004.9,605.7v5.2c0,0.3-0.4,0.6-0.9,0.6h-4c-0.5,0-0.9-0.3-0.9-0.6v-5.2c0-0.3,0.4-0.6,0.9-0.6h4
				C1004.5,605.1,1004.9,605.3,1004.9,605.7z"/>
		</g>
		<g>
			<path fill="#FFFFFF" d="M1048.5,644v5.2c0,0.3-0.4,0.6-0.9,0.6h-4c-0.5,0-0.9-0.3-0.9-0.6V644c0-0.3,0.4-0.6,0.9-0.6h4
				C1048.1,643.3,1048.5,643.6,1048.5,644z"/>
			<path fill="#FFFFFF" d="M1048.5,634.4v5.2c0,0.3-0.4,0.6-0.9,0.6h-4c-0.5,0-0.9-0.3-0.9-0.6v-5.2c0-0.3,0.4-0.6,0.9-0.6h4
				C1048.1,633.7,1048.5,634,1048.5,634.4z"/>
			<path fill="#FFFFFF" d="M1048.5,625.1v5.2c0,0.3-0.4,0.6-0.9,0.6h-4c-0.5,0-0.9-0.3-0.9-0.6v-5.2c0-0.3,0.4-0.6,0.9-0.6h4
				C1048.1,624.5,1048.5,624.8,1048.5,625.1z"/>
			<path fill="#FFFFFF" d="M1048.5,615.6v5.2c0,0.3-0.4,0.6-0.9,0.6h-4c-0.5,0-0.9-0.3-0.9-0.6v-5.2c0-0.3,0.4-0.6,0.9-0.6h4
				C1048.1,614.9,1048.5,615.2,1048.5,615.6z"/>
			<path fill="#FFFFFF" d="M1048.5,605.7v5.2c0,0.3-0.4,0.6-0.9,0.6h-4c-0.5,0-0.9-0.3-0.9-0.6v-5.2c0-0.3,0.4-0.6,0.9-0.6h4
				C1048.1,605.1,1048.5,605.3,1048.5,605.7z"/>
		</g>
	</g>
</g>
<g>
	<g>
		<path fill="#63BDC5" d="M1008.6,953.6c0,1.4-3,2.5-6.8,2.5c-3.7,0-6.8-1.1-6.8-2.5c0-1.4,3-2.5,6.8-2.5
			C1005.6,951.1,1008.6,952.2,1008.6,953.6z"/>
		<path fill="#63BDC5" d="M980.6,900.8c0-11.7,9.5-21.2,21.2-21.2c11.7,0,21.2,9.5,21.2,21.2c0,10.6-7.8,19.4-18,21l-3.3,31.8
			l-3.3-31.8C988.4,920.3,980.6,911.4,980.6,900.8z"/>
	</g>
	<g>
		<path fill="#FFFFFF" d="M1013.9,909.7l-4.9-6.7c-0.2-0.3,0-0.8,0.4-0.8h2.7c0.4,0,0.6-0.4,0.4-0.8l-4.5-6c-0.2-0.3,0-0.8,0.4-0.8
			h1.6c0.4,0,0.6-0.4,0.4-0.8l-8.1-10.9c-0.2-0.3-0.6-0.3-0.8,0l-8.1,10.9c-0.2,0.3,0,0.8,0.4,0.8h1.6c0.4,0,0.6,0.4,0.4,0.8l-4.5,6
			c-0.2,0.3,0,0.8,0.4,0.8h2.7c0.4,0,0.6,0.4,0.4,0.8l-4.9,6.7c-0.2,0.3,0,0.8,0.4,0.8h23.3C1013.9,910.5,1014.1,910,1013.9,909.7z"
			/>
		<g>
			<path fill="#FFFFFF" d="M1001.3,899.8l-3.1,18.6h7.2l-3.1-18.6C1002.2,899.2,1001.4,899.2,1001.3,899.8z"/>
			<path fill="#FFFFFF" d="M1000.3,910.7l-4.2-4c-0.4-0.3,0-0.9,0.5-0.8l4,1.2"/>
			<path fill="#FFFFFF" d="M1001.5,910.5l4.7-7.2c0.3-0.4-0.2-0.9-0.7-0.7l-4.2,2.8"/>
		</g>
	</g>
</g>
<g>
	<g>
		<path fill="#63BDC5" d="M918.5,319.5c0,1.4-3,2.5-6.8,2.5c-3.7,0-6.8-1.1-6.8-2.5c0-1.4,3-2.5,6.8-2.5
			C915.5,316.9,918.5,318.1,918.5,319.5z"/>
		<path fill="#63BDC5" d="M890.5,266.7c0-11.7,9.5-21.2,21.2-21.2c11.7,0,21.2,9.5,21.2,21.2c0,10.6-7.8,19.4-18,21l-3.3,31.8
			l-3.3-31.8C898.3,286.1,890.5,277.3,890.5,266.7z"/>
	</g>
	<path fill-rule="evenodd" fill="#FFFFFF" d="M922.6,265.9c-0.7,0.3-1.4,0.5-2.1,0.8c-0.1,0-0.1,0.2-0.2,0.4
		c-0.2,1.4-0.4,2.7-0.7,4.1c0,0.2-0.2,0.5-0.4,0.5c-3.9,1.9-7.9,2.7-12.1,1.5c-1.9-0.5-3.6-1.4-5.1-2.6c-0.7-0.5-1-1.2-1-2
		c0-1.4,0-2.9,0-4.3c0-0.4-0.1-0.6-0.4-0.8c-0.7-0.4-1.3-1-2-1.4c-0.6-0.4-0.8-0.8-0.7-1.5c0.1-1,0-1.1,1-1.4c3-0.9,6.1-1.7,9.1-2.5
		c1.3-0.3,2.6-0.6,3.9-0.8c0.3-0.1,0.6,0,0.9,0.1c4.1,2,8.2,4.2,12,6.6c0.4,0.2,0.7,0.5,0.8,1c0.1,0.7,0,1.1-0.7,1.2
		c-1.3,0.3-1.8,1-1.9,2.4c-0.1,2.4-0.5,4.7-0.7,7.1c0,0.3,0,0.5,0.3,0.7c1.5,1.2,1.7,3.5,0.4,5c-0.5,0.6-1.1,1-1.7,1.6
		c-0.1-0.3-0.2-0.5-0.2-0.8c-0.3,0.1-0.5,0.2-0.8,0.3c-0.2-0.5-0.3-0.9-0.5-1.3c-0.1-0.3-0.1-0.5-0.2-0.8c-0.4-2,0-3.1,1.8-4.1
		c0.4-0.2,0.5-0.4,0.6-0.8c0.2-2.7,0.4-5.3,0.7-8C922.6,266.3,922.6,266.2,922.6,265.9z"/>
</g>
<g>
	<path fill="#FFFFFF" d="M1067.6,726.9c-1.6,0.7-3.5,1-5.9,1c-3,0-5.5-0.8-7.3-2.5c-1.8-1.7-2.8-3.8-2.8-6.5c0-2.8,1-5.2,3.1-7
		c2-1.8,4.7-2.7,7.9-2.7c2,0,3.7,0.2,5,0.7v2.8c-1.5-0.7-3.1-1.1-4.9-1.1c-2.3,0-4.1,0.7-5.5,2c-1.4,1.3-2.1,3-2.1,5.1
		c0,2,0.7,3.6,2,4.9c1.3,1.2,3,1.9,5.2,1.9c2,0,3.8-0.4,5.4-1.2V726.9z"/>
	<path fill="#FFFFFF" d="M1084.4,727.6h-3.2v-7.4c0-2.4-1-3.6-3.1-3.6c-1.1,0-1.9,0.3-2.6,1s-1,1.6-1,2.7v7.4h-3.2v-19.2h3.2v8.3
		h0.1c1.1-1.6,2.8-2.4,4.8-2.4c3.4,0,5.1,1.8,5.1,5.3V727.6z"/>
	<path fill="#FFFFFF" d="M1088.3,710.2c0-0.5,0.2-0.8,0.6-1.1s0.8-0.5,1.4-0.5c0.6,0,1,0.2,1.4,0.5s0.6,0.7,0.6,1.1
		s-0.2,0.8-0.6,1.1s-0.8,0.5-1.4,0.5c-0.6,0-1-0.2-1.4-0.5S1088.3,710.6,1088.3,710.2z M1088.6,727.6v-13h3.2v13H1088.6z"/>
	<path fill="#FFFFFF" d="M1109.5,727.6h-3.2v-7.3c0-2.5-1.1-3.7-3.2-3.7c-1.1,0-1.9,0.3-2.6,1s-1,1.6-1,2.6v7.4h-3.2v-13h3.2v2.1
		h0.1c1.1-1.6,2.7-2.4,4.9-2.4c3.4,0,5,1.8,5,5.3V727.6z"/>
	<path fill="#FFFFFF" d="M1135.7,726.9c-1.6,0.7-3.5,1-5.9,1c-3,0-5.5-0.8-7.3-2.5c-1.8-1.7-2.8-3.8-2.8-6.5c0-2.8,1-5.2,3.1-7
		c2-1.8,4.7-2.7,7.9-2.7c2,0,3.7,0.2,5,0.7v2.8c-1.5-0.7-3.1-1.1-4.9-1.1c-2.3,0-4.1,0.7-5.5,2c-1.4,1.3-2.1,3-2.1,5.1
		c0,2,0.7,3.6,2,4.9c1.3,1.2,3,1.9,5.2,1.9c2,0,3.8-0.4,5.4-1.2V726.9z"/>
	<path fill="#FFFFFF" d="M1152.6,727.6h-3.2v-7.4c0-2.4-1-3.6-3.1-3.6c-1.1,0-1.9,0.3-2.6,1s-1,1.6-1,2.7v7.4h-3.2v-19.2h3.2v8.3
		h0.1c1.1-1.6,2.8-2.4,4.8-2.4c3.4,0,5.1,1.8,5.1,5.3V727.6z"/>
	<path fill="#FFFFFF" d="M1156.5,710.2c0-0.5,0.2-0.8,0.6-1.1s0.8-0.5,1.4-0.5c0.6,0,1,0.2,1.4,0.5s0.6,0.7,0.6,1.1
		s-0.2,0.8-0.6,1.1s-0.8,0.5-1.4,0.5c-0.6,0-1-0.2-1.4-0.5S1156.5,710.6,1156.5,710.2z M1156.8,727.6v-13h3.2v13H1156.8z"/>
	<path fill="#FFFFFF" d="M1177.7,727.6h-3.2v-7.3c0-2.5-1.1-3.7-3.2-3.7c-1.1,0-1.9,0.3-2.6,1s-1,1.6-1,2.6v7.4h-3.2v-13h3.2v2.1
		h0.1c1.1-1.6,2.7-2.4,4.9-2.4c3.4,0,5,1.8,5,5.3V727.6z"/>
	<path fill="#FFFFFF" d="M1065.4,751.1c-0.8,2.8-1.5,4.7-2.3,5.8l-2-1.4c0.9-1.3,1.6-3,2.1-5.1L1065.4,751.1z M1073,749.4h-4.4v8.1
		h-2.4v-8.1h-4.9v-1.9h4.9v-1.8h-4.3v-1.9h2.2c-0.4-1.4-0.8-2.5-1.1-3.3h-1.1v-1.9h4.2c-0.1-0.3-0.5-0.8-1-1.6l2.4-0.6
		c0.5,0.7,0.9,1.5,1.3,2.2h3.7v1.9h-0.7c-0.5,1.6-0.9,2.7-1.1,3.3h1.9v1.9h-3.8v1.8h4.4V749.4z M1069.2,740.5h-3.8
		c0.7,1.9,1,3,1.1,3.3h1.6C1068.6,742.6,1068.9,741.5,1069.2,740.5z M1073.2,754.1l-2.2,0.9c-0.3-1.2-0.9-2.5-1.6-3.9l2.1-0.8
		C1072.3,751.7,1072.8,752.9,1073.2,754.1z M1085.8,752.9c-0.1,1.6-0.2,2.7-0.3,3.1c-0.2,0.5-0.4,0.8-0.8,1s-1.1,0.3-2.1,0.3
		c-0.8,0-1.3,0-1.6-0.1c-0.3-0.1-0.6-0.3-0.8-0.5s-0.4-0.6-0.4-1.1v-4.9h-1.5c-0.2,3.4-1.9,5.8-4.9,7l-1.6-1.6
		c2.8-1.2,4.2-3,4.2-5.4h-1.9v-13.5h10.4v13.5h-2.4v4.2c0,0.3,0.2,0.5,0.7,0.5c0.2,0,0.4,0,0.5-0.1c0.1-0.1,0.2-0.5,0.3-1.2
		s0.1-1.3,0-1.7L1085.8,752.9z M1082,740.9v-1.8h-5.7v1.8H1082z M1082,744.8v-1.9h-5.7v1.9H1082z M1082,748.7v-2h-5.7v2H1082z"/>
	<path fill="#FFFFFF" d="M1093.2,751.1c-0.8,2.8-1.5,4.7-2.3,5.8l-2-1.4c0.9-1.3,1.6-3,2.1-5.1L1093.2,751.1z M1100.9,749.4h-4.4
		v8.1h-2.4v-8.1h-4.9v-1.9h4.9v-1.8h-4.3v-1.9h2.2c-0.4-1.4-0.8-2.5-1.1-3.3h-1.1v-1.9h4.2c-0.1-0.3-0.5-0.8-1-1.6l2.4-0.6
		c0.5,0.7,0.9,1.5,1.3,2.2h3.7v1.9h-0.7c-0.5,1.6-0.9,2.7-1.1,3.3h1.9v1.9h-3.8v1.8h4.4V749.4z M1097.1,740.5h-3.8
		c0.7,1.9,1,3,1.1,3.3h1.6C1096.4,742.6,1096.8,741.5,1097.1,740.5z M1101.1,754.1l-2.2,0.9c-0.3-1.2-0.9-2.5-1.6-3.9l2.1-0.8
		C1100.1,751.7,1100.7,752.9,1101.1,754.1z M1113.6,752.9c-0.1,1.6-0.2,2.7-0.3,3.1c-0.2,0.5-0.4,0.8-0.8,1s-1.1,0.3-2.1,0.3
		c-0.8,0-1.3,0-1.6-0.1c-0.3-0.1-0.6-0.3-0.8-0.5s-0.4-0.6-0.4-1.1v-4.9h-1.5c-0.2,3.4-1.9,5.8-4.9,7l-1.6-1.6
		c2.8-1.2,4.2-3,4.2-5.4h-1.9v-13.5h10.4v13.5h-2.4v4.2c0,0.3,0.2,0.5,0.7,0.5c0.2,0,0.4,0,0.5-0.1c0.1-0.1,0.2-0.5,0.3-1.2
		s0.1-1.3,0-1.7L1113.6,752.9z M1109.9,740.9v-1.8h-5.7v1.8H1109.9z M1109.9,744.8v-1.9h-5.7v1.9H1109.9z M1109.9,748.7v-2h-5.7v2
		H1109.9z"/>
	<path fill="#FFFFFF" d="M1131.7,739.9c-0.2,1.1-0.5,2.2-0.8,3.4l-2.4-0.4c0.2-0.6,0.4-1,0.4-1.3h-3.5v0.9l2.3-0.2l0.1,1.4l-2.4,0.2
		v0.2c0,0.3,0.1,0.4,0.4,0.4h4.4v1.5h-5.5c-0.4,0-0.8-0.1-1.1-0.3c-0.3-0.2-0.5-0.5-0.5-0.9v-0.7l-1.9,0.1l-0.1-1.4l2-0.1v-1h-2.5
		v7.3c0,3.6-0.7,6.6-2.1,8.9l-1.8-1.7c1-1.9,1.4-4.3,1.4-7.1v-9.2h4.8v-3.2h2.4v0.7h5.5v1.6h-5.5v0.9H1131.7z M1131.7,755.8
		c-3.3,0.7-7,1.3-11.1,1.8l-0.3-1.7c0.7-0.1,1.7-0.2,3-0.4c-0.1-0.5-0.4-1.1-0.7-1.8l1.6-0.7h-2.3v-3.8h9.2v3.8h-2.6l1.5,0.6
		c-0.1,0.3-0.3,0.5-0.5,0.8c0.8-0.1,1.5-0.2,2.2-0.4L1131.7,755.8z M1131.6,748.4h-10.2v-1.6h10.2V748.4z M1128.7,751.6v-0.9h-4.6
		v0.9H1128.7z M1127.8,753.1h-3.1c0.3,0.5,0.5,1.2,0.8,2.1c0.2,0,0.6-0.1,1.1-0.2C1127.1,754.5,1127.5,753.8,1127.8,753.1z
		 M1141.6,753.3c-0.4,2.9-1.4,4.3-3,4.3c-0.9,0-1.9-0.7-2.9-2.1c-0.6,0.7-1.3,1.4-2.1,2.1l-2-1.1c1.1-1,2.1-2.1,3-3.2
		c-0.5-2-0.8-4.6-1-7.7l-2.1,0.3l-0.2-2l2.3-0.3c-0.1-3-0.2-5.2-0.2-6.8l2.4,0c0,3,0,5.2,0.1,6.5l5-0.7l0.2,2l-5,0.7
		c0,1.3,0.2,3,0.4,5c0.6-1,1.2-2.6,1.9-4.6l2.3,0.5c-0.8,2.6-1.9,5.1-3.4,7.4c0.7,1.1,1.1,1.7,1.3,1.7c0.2,0,0.3-0.3,0.5-0.9
		s0.3-1.2,0.3-1.9L1141.6,753.3z M1141,740.8l-2,1c-0.5-1-1.3-2.1-2.4-3.3l2-1C1139.5,738.6,1140.3,739.6,1141,740.8z"/>
	<path fill="#FFFFFF" d="M1151.2,744.1c1.5,1.9,2.2,3.6,2.2,5.2c0,1-0.3,1.8-0.7,2.4c-0.5,0.6-1.5,0.9-3,0.9c-0.2,0-0.5,0-0.7,0
		l-0.7-2c0.3,0,0.6,0.1,0.9,0.1c0.9,0,1.4-0.1,1.6-0.3s0.3-0.4,0.3-0.7c0-1.7-0.8-3.4-2.4-5.1c0.8-1.8,1.5-3.6,2-5.4h-2.7v18.6h-2.4
		v-20.6h7.6v1.9C1152.5,740.7,1151.9,742.5,1151.2,744.1z M1169.1,752.9c0,1.9-0.3,3.1-0.8,3.7c-0.5,0.6-1.6,0.9-3.2,0.9
		c-1.2,0-1.9-0.2-2.4-0.5s-0.7-0.8-0.7-1.6V749h-2.4c0,4.2-2.3,7.1-6.8,8.7l-1.5-1.8c3.9-1.3,5.9-3.3,5.9-6.2c0-0.3,0-0.5-0.1-0.8
		h-3.2v-2h14.7v2h-4.2v6c0,0.3,0.2,0.4,0.5,0.4c0.8,0,1.2-0.1,1.4-0.4s0.3-1.2,0.3-2.7L1169.1,752.9z M1168.5,743.9h-2.4v-3h-9.6v3
		h-2.4v-5h5.7c-0.1-0.4-0.4-1.1-1-2l2.5-0.3c0.4,0.6,0.8,1.4,1.1,2.4h6V743.9z M1165.3,744.9h-8v-2h8V744.9z"/>
</g>
</svg>
